# MagicaVoxel @ Ephtracy

# group
o 

# material
mtllib truck-1.mtl
usemtl palette

# normals
vn -1 0 0
vn 1 0 0
vn 0 0 1
vn 0 0 -1
vn 0 -1 0
vn 0 1 0

# texcoords
vt 0.0175781 0.5
vt 0.845703 0.5
vt 0.861328 0.5
vt 0.927734 0.5
vt 0.958984 0.5
vt 0.966797 0.5
vt 0.974609 0.5
vt 0.982422 0.5
vt 0.994141 0.5

# verts
v -1.6 0.7 1
v -1.6 0.7 -1
v -1.6 0.9 1
v -1.6 0.9 -1
v -1.5 0.9 0.9
v -1.5 0.9 -0.9
v -1.5 1 0.9
v -1.5 1 0.8
v -1.5 1 -0.8
v -1.5 1 -0.9
v -1.5 1.2 0.9
v -1.5 1.2 0.8
v -1.5 1.2 -0.8
v -1.5 1.2 -0.9
v -1.5 1.4 -0.8
v -1.5 1.4 -0.9
v -1.5 1.5 -0.8
v -1.5 1.5 -0.9
v -1.5 1.6 -0.8
v -1.5 1.6 -0.9
v -1.5 1.7 -0.8
v -1.5 1.7 -0.9
v -1.5 2.1 0.9
v -1.5 2.1 -0.9
v 0.9 1.2 0.7
v 0.9 1.2 0.6
v 0.9 1.2 -0.6
v 0.9 1.2 -0.7
v 0.9 1.3 0.6
v 0.9 1.3 -0.6
v 0.9 1.4 0.7
v 0.9 1.4 0.6
v 0.9 1.4 -0.6
v 0.9 1.4 -0.7
v 1.4 0.7 0.7
v 1.4 0.7 0.6
v 1.4 0.7 -0.6
v 1.4 0.7 -0.7
v 1.4 0.9 0.7
v 1.4 0.9 0.6
v 1.4 0.9 -0.6
v 1.4 0.9 -0.7
v -1.3 0.7 1
v -1.3 0.7 0.9
v -1.3 0.7 -0.9
v -1.3 0.7 -1
v -1.3 0.9 1
v -1.3 0.9 0.9
v -1.3 0.9 -0.9
v -1.3 0.9 -1
v 0.3 0.7 0.9
v 0.3 0.7 0.6
v 0.3 0.7 -0.6
v 0.3 0.7 -0.9
v 0.3 1.4 0.9
v 0.3 1.4 0.8
v 0.3 1.5 0.9
v 0.3 1.5 0.8
v 0.3 1.6 0.9
v 0.3 1.6 0.8
v 0.3 1.7 0.9
v 0.3 1.7 0.8
v 0.3 1.8 0.6
v 0.3 1.8 -0.6
v 0.3 2.1 0.9
v 0.3 2.1 -0.9
v 1 1.2 0.7
v 1 1.2 0.6
v 1 1.2 -0.6
v 1 1.2 -0.7
v 1 1.4 0.7
v 1 1.4 0.6
v 1 1.4 -0.6
v 1 1.4 -0.7
v 1.1 1.2 0.6
v 1.1 1.2 -0.6
v 1.1 1.3 0.5
v 1.1 1.3 -0.5
v 1.1 1.7 0.5
v 1.1 1.7 -0.5
v 1.1 1.8 0.6
v 1.1 1.8 -0.6
v 1.5 0.9 0.6
v 1.5 0.9 0.2
v 1.5 0.9 -0.2
v 1.5 0.9 -0.6
v 1.5 1 0.5
v 1.5 1 0.3
v 1.5 1 -0.3
v 1.5 1 -0.5
v 1.5 1.1 0.5
v 1.5 1.1 0.3
v 1.5 1.1 0.2
v 1.5 1.1 -0.2
v 1.5 1.1 -0.3
v 1.5 1.1 -0.5
v 1.5 1.2 0.6
v 1.5 1.2 -0.6
v 1.6 0.7 0.7
v 1.6 0.7 -0.7
v 1.6 0.9 0.7
v 1.6 0.9 -0.7
v -1.6 0.7 1
v -1.6 0.9 1
v -1.3 0.7 1
v -1.3 0.9 1
v -1.5 0.9 0.9
v -1.5 1 0.9
v -1.5 1.2 0.9
v -1.5 2.1 0.9
v -1.4 1 0.9
v -1.4 1.2 0.9
v -1.4 1.5 0.9
v -1.4 1.9 0.9
v -1.3 0.7 0.9
v -1.3 0.9 0.9
v -1.3 1.6 0.9
v -1.3 1.8 0.9
v -1.2 1.6 0.9
v -1.2 1.7 0.9
v -1.1 1.5 0.9
v -1.1 1.6 0.9
v -1 1.6 0.9
v -1 1.7 0.9
v -1 1.8 0.9
v -1 1.9 0.9
v -0.9 1.5 0.9
v -0.9 1.9 0.9
v -0.8 1.6 0.9
v -0.8 1.8 0.9
v -0.7 1.1 0.9
v -0.7 1.3 0.9
v -0.6 1 0.9
v -0.6 1.1 0.9
v -0.6 1.3 0.9
v -0.6 1.5 0.9
v -0.6 1.6 0.9
v -0.6 1.8 0.9
v -0.6 1.9 0.9
v -0.5 1 0.9
v -0.5 1.1 0.9
v -0.5 1.3 0.9
v -0.5 1.6 0.9
v -0.5 1.8 0.9
v -0.4 1.1 0.9
v -0.4 1.3 0.9
v -0.4 1.5 0.9
v -0.4 1.9 0.9
v -0.3 1 0.9
v -0.3 1.1 0.9
v -0.3 1.2 0.9
v -0.3 1.3 0.9
v -0.3 1.5 0.9
v -0.3 1.6 0.9
v -0.3 1.7 0.9
v -0.3 1.8 0.9
v -0.2 1 0.9
v -0.2 1.1 0.9
v -0.2 1.2 0.9
v -0.2 1.3 0.9
v -0.1 1 0.9
v -0.1 1.1 0.9
v -0.1 1.2 0.9
v -0.1 1.3 0.9
v -0.1 1.7 0.9
v -0.1 1.8 0.9
v 0 1 0.9
v 0 1.1 0.9
v 0 1.2 0.9
v 0 1.3 0.9
v 0 1.4 0.9
v 0 1.5 0.9
v 0 1.6 0.9
v 0 1.9 0.9
v 0.1 1.6 0.9
v 0.1 1.7 0.9
v 0.3 0.7 0.9
v 0.3 1.4 0.9
v 0.3 1.5 0.9
v 0.3 1.6 0.9
v 0.3 1.7 0.9
v 0.3 2.1 0.9
v 0.9 1.2 0.7
v 0.9 1.4 0.7
v 1 1.2 0.7
v 1 1.4 0.7
v 1.4 0.7 0.7
v 1.4 0.9 0.7
v 1.6 0.7 0.7
v 1.6 0.9 0.7
v 0.3 0.7 0.6
v 0.3 1.8 0.6
v 0.4 1.1 0.6
v 0.4 1.2 0.6
v 0.5 1.3 0.6
v 0.5 1.7 0.6
v 0.6 1.1 0.6
v 0.6 1.2 0.6
v 0.9 1.2 0.6
v 0.9 1.3 0.6
v 0.9 1.4 0.6
v 1 1.2 0.6
v 1 1.4 0.6
v 1 1.7 0.6
v 1.1 1.2 0.6
v 1.1 1.8 0.6
v 1.4 0.7 0.6
v 1.4 0.9 0.6
v 1.5 0.9 0.6
v 1.5 1.2 0.6
v 0.3 0.7 -0.6
v 0.3 1.8 -0.6
v 0.4 1.1 -0.6
v 0.4 1.2 -0.6
v 0.5 1.3 -0.6
v 0.5 1.7 -0.6
v 0.6 1.1 -0.6
v 0.6 1.2 -0.6
v 0.9 1.2 -0.6
v 0.9 1.3 -0.6
v 0.9 1.4 -0.6
v 1 1.2 -0.6
v 1 1.4 -0.6
v 1 1.7 -0.6
v 1.1 1.2 -0.6
v 1.1 1.8 -0.6
v 1.4 0.7 -0.6
v 1.4 0.9 -0.6
v 1.5 0.9 -0.6
v 1.5 1.2 -0.6
v 0.9 1.2 -0.7
v 0.9 1.4 -0.7
v 1 1.2 -0.7
v 1 1.4 -0.7
v 1.4 0.7 -0.7
v 1.4 0.9 -0.7
v 1.6 0.7 -0.7
v 1.6 0.9 -0.7
v -1.5 0.9 -0.9
v -1.5 1 -0.9
v -1.5 1.2 -0.9
v -1.5 1.4 -0.9
v -1.5 1.5 -0.9
v -1.5 1.6 -0.9
v -1.5 1.7 -0.9
v -1.5 2.1 -0.9
v -1.4 1 -0.9
v -1.4 1.2 -0.9
v -1.3 0.7 -0.9
v -1.3 0.9 -0.9
v -1.2 1.6 -0.9
v -1.2 1.7 -0.9
v -1.1 1.6 -0.9
v -1.1 1.9 -0.9
v -1 1.4 -0.9
v -1 1.5 -0.9
v -1 1.7 -0.9
v -1 1.8 -0.9
v -0.9 1.5 -0.9
v -0.9 1.6 -0.9
v -0.9 1.7 -0.9
v -0.9 1.8 -0.9
v -0.8 1.5 -0.9
v -0.8 1.9 -0.9
v -0.7 1 -0.9
v -0.7 1.1 -0.9
v -0.7 1.2 -0.9
v -0.7 1.3 -0.9
v -0.7 1.6 -0.9
v -0.7 1.8 -0.9
v -0.6 1 -0.9
v -0.6 1.1 -0.9
v -0.6 1.2 -0.9
v -0.6 1.3 -0.9
v -0.6 1.5 -0.9
v -0.6 1.6 -0.9
v -0.6 1.8 -0.9
v -0.6 1.9 -0.9
v -0.5 1 -0.9
v -0.5 1.1 -0.9
v -0.5 1.2 -0.9
v -0.5 1.3 -0.9
v -0.4 1 -0.9
v -0.4 1.1 -0.9
v -0.4 1.2 -0.9
v -0.4 1.3 -0.9
v -0.4 1.6 -0.9
v -0.4 1.8 -0.9
v -0.3 1.1 -0.9
v -0.3 1.3 -0.9
v -0.3 1.5 -0.9
v -0.3 1.9 -0.9
v -0.2 1 -0.9
v -0.2 1.1 -0.9
v -0.2 1.3 -0.9
v -0.2 1.6 -0.9
v -0.2 1.7 -0.9
v -0.2 1.8 -0.9
v -0.2 1.9 -0.9
v -0.1 1 -0.9
v -0.1 1.1 -0.9
v -0.1 1.3 -0.9
v -0.1 1.5 -0.9
v -0.1 1.6 -0.9
v 0 1.1 -0.9
v 0 1.3 -0.9
v 0 1.6 -0.9
v 0 1.7 -0.9
v 0.1 1.6 -0.9
v 0.1 1.8 -0.9
v 0.2 1.5 -0.9
v 0.2 1.9 -0.9
v 0.3 0.7 -0.9
v 0.3 2.1 -0.9
v -1.6 0.7 -1
v -1.6 0.9 -1
v -1.3 0.7 -1
v -1.3 0.9 -1
v -1.6 0.7 1
v -1.3 0.7 1
v -1.3 0.7 0.9
v 0.3 0.7 0.9
v 1.4 0.7 0.7
v 1.6 0.7 0.7
v 0.3 0.7 0.6
v 1.4 0.7 0.6
v 0.3 0.7 -0.6
v 1.4 0.7 -0.6
v 1.4 0.7 -0.7
v 1.6 0.7 -0.7
v -1.3 0.7 -0.9
v 0.3 0.7 -0.9
v -1.6 0.7 -1
v -1.3 0.7 -1
v 0.9 1.2 0.7
v 1 1.2 0.7
v 0.9 1.2 0.6
v 1 1.2 0.6
v 0.9 1.2 -0.6
v 1 1.2 -0.6
v 0.9 1.2 -0.7
v 1 1.2 -0.7
v -1.6 0.9 1
v -1.3 0.9 1
v -1.5 0.9 0.9
v -1.3 0.9 0.9
v 1.4 0.9 0.7
v 1.6 0.9 0.7
v 1.4 0.9 0.6
v 1.5 0.9 0.6
v 1.5 0.9 0.2
v 1.5 0.9 -0.2
v 1.4 0.9 -0.6
v 1.5 0.9 -0.6
v 1.4 0.9 -0.7
v 1.6 0.9 -0.7
v -1.5 0.9 -0.9
v -1.3 0.9 -0.9
v -1.6 0.9 -1
v -1.3 0.9 -1
v 1.1 1.2 0.6
v 1.5 1.2 0.6
v 1.1 1.2 -0.6
v 1.5 1.2 -0.6
v 0.9 1.4 0.7
v 1 1.4 0.7
v 0.9 1.4 0.6
v 1 1.4 0.6
v 0.9 1.4 -0.6
v 1 1.4 -0.6
v 0.9 1.4 -0.7
v 1 1.4 -0.7
v 0.3 1.8 0.6
v 1.1 1.8 0.6
v 0.3 1.8 -0.6
v 1.1 1.8 -0.6
v -1.5 2.1 0.9
v 0.3 2.1 0.9
v -1.5 2.1 -0.9
v 0.3 2.1 -0.9

# faces
f 3/8/1 2/8/1 1/8/1
f 4/8/1 2/8/1 3/8/1
f 7/1/1 6/1/1 5/1/1
f 8/1/1 6/1/1 7/1/1
f 9/1/1 6/1/1 8/1/1
f 10/1/1 6/1/1 9/1/1
f 11/2/1 8/2/1 7/2/1
f 12/1/1 9/1/1 8/1/1
f 12/2/1 8/2/1 11/2/1
f 13/2/1 10/2/1 9/2/1
f 13/1/1 9/1/1 12/1/1
f 14/2/1 10/2/1 13/2/1
f 15/1/1 12/1/1 11/1/1
f 15/1/1 13/1/1 12/1/1
f 15/1/1 14/1/1 13/1/1
f 16/1/1 14/1/1 15/1/1
f 17/1/1 15/1/1 11/1/1
f 17/3/1 16/3/1 15/3/1
f 18/3/1 16/3/1 17/3/1
f 19/1/1 17/1/1 11/1/1
f 19/1/1 18/1/1 17/1/1
f 20/1/1 18/1/1 19/1/1
f 21/1/1 19/1/1 11/1/1
f 21/3/1 20/3/1 19/3/1
f 22/3/1 20/3/1 21/3/1
f 23/1/1 21/1/1 11/1/1
f 23/1/1 22/1/1 21/1/1
f 24/1/1 22/1/1 23/1/1
f 29/4/1 26/4/1 25/4/1
f 30/4/1 28/4/1 27/4/1
f 31/4/1 29/4/1 25/4/1
f 32/4/1 29/4/1 31/4/1
f 33/4/1 28/4/1 30/4/1
f 34/4/1 28/4/1 33/4/1
f 39/8/1 36/8/1 35/8/1
f 40/8/1 36/8/1 39/8/1
f 41/8/1 38/8/1 37/8/1
f 42/8/1 38/8/1 41/8/1
f 43/8/2 44/8/2 47/8/2
f 47/8/2 44/8/2 48/8/2
f 45/8/2 46/8/2 49/8/2
f 49/8/2 46/8/2 50/8/2
f 51/1/2 52/1/2 55/1/2
f 55/1/2 52/1/2 56/1/2
f 55/3/2 56/3/2 57/3/2
f 56/1/2 52/1/2 58/1/2
f 57/3/2 56/3/2 58/3/2
f 57/1/2 58/1/2 59/1/2
f 58/1/2 52/1/2 60/1/2
f 59/1/2 58/1/2 60/1/2
f 59/3/2 60/3/2 61/3/2
f 60/1/2 52/1/2 62/1/2
f 61/3/2 60/3/2 62/3/2
f 61/1/2 62/1/2 63/1/2
f 62/1/2 52/1/2 63/1/2
f 53/1/2 54/1/2 64/1/2
f 61/1/2 63/1/2 65/1/2
f 63/1/2 64/1/2 65/1/2
f 64/1/2 54/1/2 66/1/2
f 65/1/2 64/1/2 66/1/2
f 67/4/2 68/4/2 71/4/2
f 71/4/2 68/4/2 72/4/2
f 69/4/2 70/4/2 73/4/2
f 73/4/2 70/4/2 74/4/2
f 75/4/2 76/4/2 77/4/2
f 77/4/2 76/4/2 78/4/2
f 75/4/2 77/4/2 79/4/2
f 77/9/2 78/9/2 79/9/2
f 78/4/2 76/4/2 80/4/2
f 79/9/2 78/9/2 80/9/2
f 75/4/2 79/4/2 81/4/2
f 79/4/2 80/4/2 81/4/2
f 80/4/2 76/4/2 82/4/2
f 81/4/2 80/4/2 82/4/2
f 83/4/2 84/4/2 87/4/2
f 87/4/2 84/4/2 88/4/2
f 85/4/2 86/4/2 89/4/2
f 89/4/2 86/4/2 90/4/2
f 83/4/2 87/4/2 91/4/2
f 87/5/2 88/5/2 91/5/2
f 88/4/2 84/4/2 92/4/2
f 91/5/2 88/5/2 92/5/2
f 84/6/2 85/6/2 93/6/2
f 92/4/2 84/4/2 93/4/2
f 85/4/2 89/4/2 94/4/2
f 93/6/2 85/6/2 94/6/2
f 89/5/2 90/5/2 95/5/2
f 94/4/2 89/4/2 95/4/2
f 90/4/2 86/4/2 96/4/2
f 95/5/2 90/5/2 96/5/2
f 83/4/2 91/4/2 97/4/2
f 91/4/2 92/4/2 97/4/2
f 95/4/2 96/4/2 97/4/2
f 92/4/2 93/4/2 97/4/2
f 93/4/2 94/4/2 97/4/2
f 94/4/2 95/4/2 97/4/2
f 96/4/2 86/4/2 98/4/2
f 97/4/2 96/4/2 98/4/2
f 99/8/2 100/8/2 101/8/2
f 101/8/2 100/8/2 102/8/2
f 105/8/3 104/8/3 103/8/3
f 106/8/3 104/8/3 105/8/3
f 111/1/3 108/1/3 107/1/3
f 111/2/3 109/2/3 108/2/3
f 112/1/3 110/1/3 109/1/3
f 112/2/3 109/2/3 111/2/3
f 113/1/3 110/1/3 112/1/3
f 114/1/3 110/1/3 113/1/3
f 116/1/3 111/1/3 107/1/3
f 116/1/3 112/1/3 111/1/3
f 116/1/3 113/1/3 112/1/3
f 117/3/3 114/3/3 113/3/3
f 118/3/3 114/3/3 117/3/3
f 119/3/3 117/3/3 113/3/3
f 119/1/3 118/1/3 117/1/3
f 120/1/3 118/1/3 119/1/3
f 121/1/3 116/1/3 115/1/3
f 121/1/3 113/1/3 116/1/3
f 121/3/3 120/3/3 119/3/3
f 121/3/3 119/3/3 113/3/3
f 122/3/3 120/3/3 121/3/3
f 123/1/3 122/1/3 121/1/3
f 123/3/3 120/3/3 122/3/3
f 124/1/3 118/1/3 120/1/3
f 124/3/3 120/3/3 123/3/3
f 125/3/3 114/3/3 118/3/3
f 125/1/3 118/1/3 124/1/3
f 126/1/3 110/1/3 114/1/3
f 126/3/3 114/3/3 125/3/3
f 127/1/3 125/1/3 124/1/3
f 127/1/3 123/1/3 121/1/3
f 127/1/3 126/1/3 125/1/3
f 127/1/3 121/1/3 115/1/3
f 127/1/3 124/1/3 123/1/3
f 128/1/3 110/1/3 126/1/3
f 128/1/3 126/1/3 127/1/3
f 129/3/3 128/3/3 127/3/3
f 130/3/3 128/3/3 129/3/3
f 131/1/3 127/1/3 115/1/3
f 132/1/3 127/1/3 131/1/3
f 133/1/3 131/1/3 115/1/3
f 134/3/3 132/3/3 131/3/3
f 134/1/3 131/1/3 133/1/3
f 135/1/3 127/1/3 132/1/3
f 135/3/3 132/3/3 134/3/3
f 136/3/3 129/3/3 127/3/3
f 136/1/3 127/1/3 135/1/3
f 137/1/3 130/1/3 129/1/3
f 137/3/3 129/3/3 136/3/3
f 138/3/3 128/3/3 130/3/3
f 138/1/3 130/1/3 137/1/3
f 139/1/3 110/1/3 128/1/3
f 139/3/3 128/3/3 138/3/3
f 140/3/3 134/3/3 133/3/3
f 140/1/3 133/1/3 115/1/3
f 141/1/3 137/1/3 136/1/3
f 141/3/3 134/3/3 140/3/3
f 141/1/3 135/1/3 134/1/3
f 141/1/3 136/1/3 135/1/3
f 142/1/3 137/1/3 141/1/3
f 143/3/3 138/3/3 137/3/3
f 143/1/3 137/1/3 142/1/3
f 144/1/3 139/1/3 138/1/3
f 144/3/3 138/3/3 143/3/3
f 145/3/3 142/3/3 141/3/3
f 145/1/3 141/1/3 140/1/3
f 146/1/3 143/1/3 142/1/3
f 146/3/3 142/3/3 145/3/3
f 146/1/3 144/1/3 143/1/3
f 147/1/3 144/1/3 146/1/3
f 148/1/3 139/1/3 144/1/3
f 148/1/3 144/1/3 147/1/3
f 148/1/3 110/1/3 139/1/3
f 149/1/3 140/1/3 115/1/3
f 149/1/3 147/1/3 146/1/3
f 149/1/3 145/1/3 140/1/3
f 149/1/3 146/1/3 145/1/3
f 150/1/3 147/1/3 149/1/3
f 151/1/3 147/1/3 150/1/3
f 152/1/3 147/1/3 151/1/3
f 153/3/3 148/3/3 147/3/3
f 153/1/3 147/1/3 152/1/3
f 154/3/3 148/3/3 153/3/3
f 155/3/3 148/3/3 154/3/3
f 156/3/3 148/3/3 155/3/3
f 157/1/3 149/1/3 115/1/3
f 157/3/3 150/3/3 149/3/3
f 158/1/3 151/1/3 150/1/3
f 158/3/3 150/3/3 157/3/3
f 159/3/3 152/3/3 151/3/3
f 159/1/3 151/1/3 158/1/3
f 160/1/3 153/1/3 152/1/3
f 160/3/3 152/3/3 159/3/3
f 160/1/3 154/1/3 153/1/3
f 161/1/3 158/1/3 157/1/3
f 161/1/3 157/1/3 115/1/3
f 162/3/3 159/3/3 158/3/3
f 162/1/3 158/1/3 161/1/3
f 163/1/3 160/1/3 159/1/3
f 163/3/3 159/3/3 162/3/3
f 164/1/3 154/1/3 160/1/3
f 164/1/3 160/1/3 163/1/3
f 165/1/3 156/1/3 155/1/3
f 165/3/3 155/3/3 154/3/3
f 166/3/3 148/3/3 156/3/3
f 166/1/3 156/1/3 165/1/3
f 167/3/3 162/3/3 161/3/3
f 167/1/3 161/1/3 115/1/3
f 168/1/3 163/1/3 162/1/3
f 168/3/3 162/3/3 167/3/3
f 169/3/3 164/3/3 163/3/3
f 169/1/3 163/1/3 168/1/3
f 170/1/3 154/1/3 164/1/3
f 170/3/3 164/3/3 169/3/3
f 171/1/3 154/1/3 170/1/3
f 172/1/3 154/1/3 171/1/3
f 173/3/3 165/3/3 154/3/3
f 173/1/3 154/1/3 172/1/3
f 173/3/3 166/3/3 165/3/3
f 174/1/3 110/1/3 148/1/3
f 174/3/3 166/3/3 173/3/3
f 174/3/3 148/3/3 166/3/3
f 175/1/3 173/1/3 172/1/3
f 175/1/3 174/1/3 173/1/3
f 176/1/3 174/1/3 175/1/3
f 177/1/3 167/1/3 115/1/3
f 177/1/3 169/1/3 168/1/3
f 177/1/3 170/1/3 169/1/3
f 177/1/3 171/1/3 170/1/3
f 177/1/3 168/1/3 167/1/3
f 178/3/3 172/3/3 171/3/3
f 178/1/3 171/1/3 177/1/3
f 179/1/3 175/1/3 172/1/3
f 179/3/3 172/3/3 178/3/3
f 180/3/3 176/3/3 175/3/3
f 180/1/3 175/1/3 179/1/3
f 181/1/3 174/1/3 176/1/3
f 181/3/3 176/3/3 180/3/3
f 182/1/3 110/1/3 174/1/3
f 182/1/3 174/1/3 181/1/3
f 185/4/3 184/4/3 183/4/3
f 186/4/3 184/4/3 185/4/3
f 189/8/3 188/8/3 187/8/3
f 190/8/3 188/8/3 189/8/3
f 193/4/3 192/4/3 191/4/3
f 194/4/3 192/4/3 193/4/3
f 195/4/3 192/4/3 194/4/3
f 196/4/3 192/4/3 195/4/3
f 197/4/3 193/4/3 191/4/3
f 197/7/3 194/7/3 193/7/3
f 198/4/3 195/4/3 194/4/3
f 198/7/3 194/7/3 197/7/3
f 199/4/3 198/4/3 197/4/3
f 199/4/3 195/4/3 198/4/3
f 200/9/3 196/9/3 195/9/3
f 200/4/3 195/4/3 199/4/3
f 201/9/3 196/9/3 200/9/3
f 202/4/3 199/4/3 197/4/3
f 203/9/3 196/9/3 201/9/3
f 204/4/3 192/4/3 196/4/3
f 204/9/3 196/9/3 203/9/3
f 205/4/3 203/4/3 202/4/3
f 205/4/3 202/4/3 197/4/3
f 205/4/3 204/4/3 203/4/3
f 206/4/3 192/4/3 204/4/3
f 206/4/3 204/4/3 205/4/3
f 207/4/3 205/4/3 197/4/3
f 207/4/3 197/4/3 191/4/3
f 208/4/3 205/4/3 207/4/3
f 209/4/3 205/4/3 208/4/3
f 210/4/3 205/4/3 209/4/3
f 211/4/4 212/4/4 213/4/4
f 213/4/4 212/4/4 214/4/4
f 214/4/4 212/4/4 215/4/4
f 215/4/4 212/4/4 216/4/4
f 211/4/4 213/4/4 217/4/4
f 213/7/4 214/7/4 217/7/4
f 214/4/4 215/4/4 218/4/4
f 217/7/4 214/7/4 218/7/4
f 217/4/4 218/4/4 219/4/4
f 218/4/4 215/4/4 219/4/4
f 215/9/4 216/9/4 220/9/4
f 219/4/4 215/4/4 220/4/4
f 220/9/4 216/9/4 221/9/4
f 217/4/4 219/4/4 222/4/4
f 221/9/4 216/9/4 223/9/4
f 216/4/4 212/4/4 224/4/4
f 223/9/4 216/9/4 224/9/4
f 222/4/4 223/4/4 225/4/4
f 217/4/4 222/4/4 225/4/4
f 223/4/4 224/4/4 225/4/4
f 224/4/4 212/4/4 226/4/4
f 225/4/4 224/4/4 226/4/4
f 217/4/4 225/4/4 227/4/4
f 211/4/4 217/4/4 227/4/4
f 227/4/4 225/4/4 228/4/4
f 228/4/4 225/4/4 229/4/4
f 229/4/4 225/4/4 230/4/4
f 231/4/4 232/4/4 233/4/4
f 233/4/4 232/4/4 234/4/4
f 235/8/4 236/8/4 237/8/4
f 237/8/4 236/8/4 238/8/4
f 239/1/4 240/1/4 247/1/4
f 240/2/4 241/2/4 247/2/4
f 241/1/4 242/1/4 248/1/4
f 247/2/4 241/2/4 248/2/4
f 239/1/4 247/1/4 250/1/4
f 247/1/4 248/1/4 250/1/4
f 244/3/4 245/3/4 251/3/4
f 243/1/4 244/1/4 251/1/4
f 245/1/4 246/1/4 252/1/4
f 251/3/4 245/3/4 252/3/4
f 243/1/4 251/1/4 253/1/4
f 251/1/4 252/1/4 253/1/4
f 252/1/4 246/1/4 254/1/4
f 253/1/4 252/1/4 254/1/4
f 249/1/4 250/1/4 255/1/4
f 248/1/4 242/1/4 255/1/4
f 242/3/4 243/3/4 255/3/4
f 250/1/4 248/1/4 255/1/4
f 243/1/4 253/1/4 256/1/4
f 255/3/4 243/3/4 256/3/4
f 253/3/4 254/3/4 257/3/4
f 257/3/4 254/3/4 258/3/4
f 256/1/4 253/1/4 259/1/4
f 255/1/4 256/1/4 259/1/4
f 253/3/4 257/3/4 260/3/4
f 259/1/4 253/1/4 260/1/4
f 257/1/4 258/1/4 261/1/4
f 260/3/4 257/3/4 261/3/4
f 258/3/4 254/3/4 262/3/4
f 261/1/4 258/1/4 262/1/4
f 260/3/4 261/3/4 263/3/4
f 259/3/4 260/3/4 263/3/4
f 261/3/4 262/3/4 263/3/4
f 255/1/4 259/1/4 263/1/4
f 254/1/4 246/1/4 264/1/4
f 263/3/4 262/3/4 264/3/4
f 262/3/4 254/3/4 264/3/4
f 249/1/4 255/1/4 265/1/4
f 255/1/4 263/1/4 265/1/4
f 263/1/4 264/1/4 265/1/4
f 265/1/4 264/1/4 266/1/4
f 266/1/4 264/1/4 267/1/4
f 267/1/4 264/1/4 268/1/4
f 268/1/4 264/1/4 269/1/4
f 269/1/4 264/1/4 270/1/4
f 249/1/4 265/1/4 271/1/4
f 265/3/4 266/3/4 271/3/4
f 266/1/4 267/1/4 272/1/4
f 271/3/4 266/3/4 272/3/4
f 267/3/4 268/3/4 273/3/4
f 272/1/4 267/1/4 273/1/4
f 268/1/4 269/1/4 274/1/4
f 273/3/4 268/3/4 274/3/4
f 274/1/4 269/1/4 275/1/4
f 269/3/4 270/3/4 276/3/4
f 275/1/4 269/1/4 276/1/4
f 270/1/4 264/1/4 277/1/4
f 276/3/4 270/3/4 277/3/4
f 264/1/4 246/1/4 278/1/4
f 277/1/4 264/1/4 278/1/4
f 249/1/4 271/1/4 279/1/4
f 271/1/4 272/1/4 279/1/4
f 272/3/4 273/3/4 280/3/4
f 279/1/4 272/1/4 280/1/4
f 274/1/4 275/1/4 281/1/4
f 280/3/4 273/3/4 281/3/4
f 273/1/4 274/1/4 281/1/4
f 281/1/4 275/1/4 282/1/4
f 279/3/4 280/3/4 283/3/4
f 249/1/4 279/1/4 283/1/4
f 280/1/4 281/1/4 284/1/4
f 283/3/4 280/3/4 284/3/4
f 281/3/4 282/3/4 285/3/4
f 284/1/4 281/1/4 285/1/4
f 282/1/4 275/1/4 286/1/4
f 285/3/4 282/3/4 286/3/4
f 276/1/4 277/1/4 287/1/4
f 275/3/4 276/3/4 287/3/4
f 277/3/4 278/3/4 288/3/4
f 287/1/4 277/1/4 288/1/4
f 285/1/4 286/1/4 289/1/4
f 284/1/4 285/1/4 289/1/4
f 283/1/4 284/1/4 289/1/4
f 286/1/4 275/1/4 290/1/4
f 289/1/4 286/1/4 290/1/4
f 287/3/4 288/3/4 291/3/4
f 290/1/4 275/1/4 291/1/4
f 275/3/4 287/3/4 291/3/4
f 288/3/4 278/3/4 292/3/4
f 291/3/4 288/3/4 292/3/4
f 278/1/4 246/1/4 292/1/4
f 283/1/4 289/1/4 293/1/4
f 249/1/4 283/1/4 293/1/4
f 289/3/4 290/3/4 294/3/4
f 293/1/4 289/1/4 294/1/4
f 290/1/4 291/1/4 295/1/4
f 294/3/4 290/3/4 295/3/4
f 291/1/4 292/1/4 295/1/4
f 295/1/4 292/1/4 296/1/4
f 296/1/4 292/1/4 297/1/4
f 297/1/4 292/1/4 298/1/4
f 292/1/4 246/1/4 299/1/4
f 298/1/4 292/1/4 299/1/4
f 293/3/4 294/3/4 300/3/4
f 249/1/4 293/1/4 300/1/4
f 294/1/4 295/1/4 301/1/4
f 300/3/4 294/3/4 301/3/4
f 295/1/4 296/1/4 301/1/4
f 301/1/4 296/1/4 302/1/4
f 302/1/4 296/1/4 303/1/4
f 296/3/4 297/3/4 304/3/4
f 303/1/4 296/1/4 304/1/4
f 300/1/4 301/1/4 305/1/4
f 301/3/4 302/3/4 305/3/4
f 302/1/4 303/1/4 306/1/4
f 305/3/4 302/3/4 306/3/4
f 304/3/4 297/3/4 307/3/4
f 303/3/4 304/3/4 307/3/4
f 297/1/4 298/1/4 308/1/4
f 307/3/4 297/3/4 308/3/4
f 303/3/4 307/3/4 309/3/4
f 307/1/4 308/1/4 309/1/4
f 308/1/4 298/1/4 310/1/4
f 309/1/4 308/1/4 310/1/4
f 298/3/4 299/3/4 310/3/4
f 303/3/4 309/3/4 311/3/4
f 305/1/4 306/1/4 311/1/4
f 309/3/4 310/3/4 311/3/4
f 306/1/4 303/1/4 311/1/4
f 310/3/4 299/3/4 312/3/4
f 311/3/4 310/3/4 312/3/4
f 299/1/4 246/1/4 312/1/4
f 305/1/4 311/1/4 313/1/4
f 249/1/4 300/1/4 313/1/4
f 311/1/4 312/1/4 313/1/4
f 300/1/4 305/1/4 313/1/4
f 312/1/4 246/1/4 314/1/4
f 313/1/4 312/1/4 314/1/4
f 315/8/4 316/8/4 317/8/4
f 317/8/4 316/8/4 318/8/4
f 321/8/5 320/8/5 319/8/5
f 325/1/5 322/1/5 321/1/5
f 326/8/5 324/8/5 323/8/5
f 327/1/5 325/1/5 321/1/5
f 327/4/5 326/4/5 325/4/5
f 328/8/5 324/8/5 326/8/5
f 328/4/5 326/4/5 327/4/5
f 329/8/5 324/8/5 328/8/5
f 330/8/5 324/8/5 329/8/5
f 331/8/5 321/8/5 319/8/5
f 331/1/5 327/1/5 321/1/5
f 332/1/5 327/1/5 331/1/5
f 333/8/5 331/8/5 319/8/5
f 334/8/5 331/8/5 333/8/5
f 337/4/5 336/4/5 335/4/5
f 338/4/5 336/4/5 337/4/5
f 341/4/5 340/4/5 339/4/5
f 342/4/5 340/4/5 341/4/5
f 343/8/6 344/8/6 345/8/6
f 345/8/6 344/8/6 346/8/6
f 347/8/6 348/8/6 349/8/6
f 349/8/6 348/8/6 350/8/6
f 350/8/6 348/8/6 351/8/6
f 351/8/6 348/8/6 352/8/6
f 352/8/6 348/8/6 354/8/6
f 353/8/6 354/8/6 355/8/6
f 354/8/6 348/8/6 356/8/6
f 355/8/6 354/8/6 356/8/6
f 343/8/6 345/8/6 357/8/6
f 343/8/6 357/8/6 359/8/6
f 357/8/6 358/8/6 359/8/6
f 359/8/6 358/8/6 360/8/6
f 361/4/6 362/4/6 363/4/6
f 363/4/6 362/4/6 364/4/6
f 365/4/6 366/4/6 367/4/6
f 367/4/6 366/4/6 368/4/6
f 369/4/6 370/4/6 371/4/6
f 371/4/6 370/4/6 372/4/6
f 373/4/6 374/4/6 375/4/6
f 375/4/6 374/4/6 376/4/6
f 377/1/6 378/1/6 379/1/6
f 379/1/6 378/1/6 380/1/6
