# MagicaVoxel @ Ephtracy

# group
o 

# material
mtllib perso1b-2.mtl
usemtl palette

# normals
vn -1 0 0
vn 1 0 0
vn 0 0 1
vn 0 0 -1
vn 0 -1 0
vn 0 1 0

# texcoords
vt 0.0136719 0.5
vt 0.0566406 0.5
vt 0.224609 0.5
vt 0.404297 0.5
vt 0.537109 0.5
vt 0.869141 0.5
vt 0.958984 0.5
vt 0.994141 0.5

# verts
v -0.6 2.1 0.6
v -0.6 2.1 -0.6
v -0.6 2.2 0.6
v -0.6 2.2 -0.6
v -0.5 2 0.5
v -0.5 2 -0.5
v -0.5 2.1 0.5
v -0.5 2.1 -0.5
v -0.5 2.2 0.6
v -0.5 2.2 -0.6
v -0.5 2.3 0.7
v -0.5 2.3 0.6
v -0.5 2.3 -0.6
v -0.5 2.3 -0.7
v -0.5 2.4 0.7
v -0.5 2.4 -0.7
v -0.4 2.1 0.7
v -0.4 2.1 0.6
v -0.4 2.1 -0.6
v -0.4 2.1 -0.7
v -0.4 2.3 0.7
v -0.4 2.3 0.6
v -0.4 2.3 -0.6
v -0.4 2.3 -0.7
v -0.4 2.4 0.7
v -0.4 2.4 -0.7
v -0.4 2.5 0.7
v -0.4 2.5 -0.7
v -0.3 2.5 0.7
v -0.3 2.5 -0.7
v -0.3 2.6 0.7
v -0.3 2.6 -0.7
v -0.2 1.5 0.4
v -0.2 1.5 0.1
v -0.2 1.5 -0.1
v -0.2 1.5 -0.4
v -0.2 1.6 0.4
v -0.2 1.6 0.3
v -0.2 1.6 0.1
v -0.2 1.6 -0.1
v -0.2 1.6 -0.3
v -0.2 1.6 -0.4
v -0.2 1.7 0.4
v -0.2 1.7 0.3
v -0.2 1.7 -0.3
v -0.2 1.7 -0.4
v -0.2 2 0.4
v -0.2 2 -0.4
v -0.2 2.6 0.7
v -0.2 2.6 -0.7
v -0.2 2.7 0.7
v -0.2 2.7 -0.7
v -0.1 2 0.3
v -0.1 2 -0.3
v -0.1 2.1 0.3
v -0.1 2.1 -0.3
v -0.1 2.7 0.6
v -0.1 2.7 -0.6
v -0.1 2.8 0.6
v -0.1 2.8 -0.6
v 0 2.8 0.4
v 0 2.8 -0.4
v 0 2.9 0.4
v 0 2.9 -0.4
v 0.1 2.8 0.5
v 0.1 2.8 0.4
v 0.1 2.8 -0.4
v 0.1 2.8 -0.5
v 0.1 2.9 0.5
v 0.1 2.9 0.4
v 0.1 2.9 -0.4
v 0.1 2.9 -0.5
v -0.4 2 0.5
v -0.4 2 0.3
v -0.4 2 -0.3
v -0.4 2 -0.5
v -0.4 2.1 0.5
v -0.4 2.1 0.3
v -0.4 2.1 -0.3
v -0.4 2.1 -0.5
v -0.3 2 0.3
v -0.3 2 -0.3
v -0.3 2.1 0.7
v -0.3 2.1 0.5
v -0.3 2.1 0.3
v -0.3 2.1 -0.3
v -0.3 2.1 -0.5
v -0.3 2.1 -0.7
v -0.3 2.3 0.7
v -0.3 2.3 0.5
v -0.3 2.3 -0.5
v -0.3 2.3 -0.7
v 0.1 2 0.3
v 0.1 2 -0.3
v 0.1 2.1 0.3
v 0.1 2.1 -0.3
v 0.1 2.3 0.7
v 0.1 2.3 0.5
v 0.1 2.3 -0.5
v 0.1 2.3 -0.7
v 0.1 2.4 0.7
v 0.1 2.4 0.5
v 0.1 2.4 -0.5
v 0.1 2.4 -0.7
v 0.2 1.5 0.4
v 0.2 1.5 0.1
v 0.2 1.5 -0.1
v 0.2 1.5 -0.4
v 0.2 1.6 0.4
v 0.2 1.6 0.1
v 0.2 1.6 -0.1
v 0.2 1.6 -0.4
v 0.2 1.7 0.4
v 0.2 1.7 0.1
v 0.2 1.7 -0.1
v 0.2 1.7 -0.4
v 0.2 2 0.4
v 0.2 2 -0.4
v 0.3 2.4 0.7
v 0.3 2.4 0.5
v 0.3 2.4 -0.5
v 0.3 2.4 -0.7
v 0.3 2.5 0.7
v 0.3 2.5 0.5
v 0.3 2.5 -0.5
v 0.3 2.5 -0.7
v 0.4 2.1 0.5
v 0.4 2.1 -0.5
v 0.4 2.2 0.3
v 0.4 2.2 -0.3
v 0.4 2.3 0.5
v 0.4 2.3 0.3
v 0.4 2.3 -0.3
v 0.4 2.3 -0.5
v 0.4 2.4 0.5
v 0.4 2.4 0.4
v 0.4 2.4 0.3
v 0.4 2.4 0.2
v 0.4 2.4 -0.2
v 0.4 2.4 -0.3
v 0.4 2.4 -0.4
v 0.4 2.4 -0.5
v 0.4 2.5 0.7
v 0.4 2.5 0.5
v 0.4 2.5 0.3
v 0.4 2.5 0.2
v 0.4 2.5 -0.2
v 0.4 2.5 -0.3
v 0.4 2.5 -0.5
v 0.4 2.5 -0.7
v 0.4 2.6 0.6
v 0.4 2.6 0.5
v 0.4 2.6 0.4
v 0.4 2.6 0.2
v 0.4 2.6 -0.2
v 0.4 2.6 -0.4
v 0.4 2.6 -0.5
v 0.4 2.6 -0.6
v 0.4 2.7 0.7
v 0.4 2.7 0.6
v 0.4 2.7 -0.6
v 0.4 2.7 -0.7
v 0.4 2.8 0.5
v 0.4 2.8 -0.5
v 0.4 2.9 0.5
v 0.4 2.9 -0.5
v 0.5 2.6 0.6
v 0.5 2.6 -0.6
v 0.5 2.8 0.6
v 0.5 2.8 -0.6
v -0.5 2.3 0.7
v -0.5 2.4 0.7
v -0.4 2.1 0.7
v -0.4 2.3 0.7
v -0.4 2.4 0.7
v -0.4 2.5 0.7
v -0.3 2.1 0.7
v -0.3 2.3 0.7
v -0.3 2.5 0.7
v -0.3 2.6 0.7
v -0.2 2.6 0.7
v -0.2 2.7 0.7
v 0.1 2.3 0.7
v 0.1 2.4 0.7
v 0.3 2.4 0.7
v 0.3 2.5 0.7
v 0.4 2.5 0.7
v 0.4 2.7 0.7
v -0.6 2.1 0.6
v -0.6 2.2 0.6
v -0.5 2.2 0.6
v -0.5 2.3 0.6
v -0.4 2.1 0.6
v -0.4 2.3 0.6
v -0.1 2.7 0.6
v -0.1 2.8 0.6
v 0.4 2.6 0.6
v 0.4 2.7 0.6
v 0.5 2.6 0.6
v 0.5 2.8 0.6
v -0.5 2 0.5
v -0.5 2.1 0.5
v -0.4 2 0.5
v -0.4 2.1 0.5
v -0.3 2.1 0.5
v -0.3 2.3 0.5
v 0.1 2.3 0.5
v 0.1 2.4 0.5
v 0.1 2.8 0.5
v 0.1 2.9 0.5
v 0.3 2.3 0.5
v 0.3 2.4 0.5
v 0.3 2.5 0.5
v 0.4 2.1 0.5
v 0.4 2.3 0.5
v 0.4 2.4 0.5
v 0.4 2.5 0.5
v 0.4 2.8 0.5
v 0.4 2.9 0.5
v -0.2 1.5 0.4
v -0.2 1.6 0.4
v -0.2 1.7 0.4
v -0.2 2 0.4
v 0 2.8 0.4
v 0 2.9 0.4
v 0.1 2.8 0.4
v 0.1 2.9 0.4
v 0.2 1.5 0.4
v 0.2 1.6 0.4
v 0.2 1.7 0.4
v 0.2 2 0.4
v -0.4 2 0.3
v -0.4 2.1 0.3
v -0.3 2 0.3
v -0.3 2.1 0.3
v -0.1 2 0.3
v -0.1 2.1 0.3
v 0.1 2 0.3
v 0.1 2.1 0.3
v -0.2 1.5 -0.1
v -0.2 1.6 -0.1
v -0.1 1.6 -0.1
v 0.1 1.6 -0.1
v 0.2 1.5 -0.1
v 0.2 1.6 -0.1
v -0.2 1.5 0.1
v -0.2 1.6 0.1
v -0.1 1.6 0.1
v 0.1 1.6 0.1
v 0.2 1.5 0.1
v 0.2 1.6 0.1
v -0.4 2 -0.3
v -0.4 2.1 -0.3
v -0.3 2 -0.3
v -0.3 2.1 -0.3
v -0.1 2 -0.3
v -0.1 2.1 -0.3
v 0.1 2 -0.3
v 0.1 2.1 -0.3
v -0.2 1.5 -0.4
v -0.2 1.6 -0.4
v -0.2 1.7 -0.4
v -0.2 2 -0.4
v 0 2.8 -0.4
v 0 2.9 -0.4
v 0.1 2.8 -0.4
v 0.1 2.9 -0.4
v 0.2 1.5 -0.4
v 0.2 1.6 -0.4
v 0.2 1.7 -0.4
v 0.2 2 -0.4
v -0.5 2 -0.5
v -0.5 2.1 -0.5
v -0.4 2 -0.5
v -0.4 2.1 -0.5
v -0.3 2.1 -0.5
v -0.3 2.3 -0.5
v 0.1 2.3 -0.5
v 0.1 2.4 -0.5
v 0.1 2.8 -0.5
v 0.1 2.9 -0.5
v 0.3 2.3 -0.5
v 0.3 2.4 -0.5
v 0.3 2.5 -0.5
v 0.4 2.1 -0.5
v 0.4 2.3 -0.5
v 0.4 2.4 -0.5
v 0.4 2.5 -0.5
v 0.4 2.8 -0.5
v 0.4 2.9 -0.5
v -0.6 2.1 -0.6
v -0.6 2.2 -0.6
v -0.5 2.2 -0.6
v -0.5 2.3 -0.6
v -0.4 2.1 -0.6
v -0.4 2.3 -0.6
v -0.1 2.7 -0.6
v -0.1 2.8 -0.6
v 0.4 2.6 -0.6
v 0.4 2.7 -0.6
v 0.5 2.6 -0.6
v 0.5 2.8 -0.6
v -0.5 2.3 -0.7
v -0.5 2.4 -0.7
v -0.4 2.1 -0.7
v -0.4 2.3 -0.7
v -0.4 2.4 -0.7
v -0.4 2.5 -0.7
v -0.3 2.1 -0.7
v -0.3 2.3 -0.7
v -0.3 2.5 -0.7
v -0.3 2.6 -0.7
v -0.2 2.6 -0.7
v -0.2 2.7 -0.7
v 0.1 2.3 -0.7
v 0.1 2.4 -0.7
v 0.3 2.4 -0.7
v 0.3 2.5 -0.7
v 0.4 2.5 -0.7
v 0.4 2.7 -0.7
v -0.2 1.5 0.4
v 0.2 1.5 0.4
v -0.1 1.5 0.3
v 0.1 1.5 0.3
v -0.1 1.5 0.2
v 0.1 1.5 0.2
v -0.2 1.5 0.1
v 0.2 1.5 0.1
v -0.2 1.5 -0.1
v 0.2 1.5 -0.1
v -0.1 1.5 -0.2
v 0.1 1.5 -0.2
v -0.1 1.5 -0.3
v 0.1 1.5 -0.3
v -0.2 1.5 -0.4
v 0.2 1.5 -0.4
v -0.2 1.6 0.1
v -0.1 1.6 0.1
v 0.1 1.6 0.1
v 0.2 1.6 0.1
v -0.2 1.6 -0.1
v -0.1 1.6 -0.1
v 0.1 1.6 -0.1
v 0.2 1.6 -0.1
v -0.5 2 0.5
v -0.4 2 0.5
v -0.4 2 0.3
v -0.3 2 0.3
v -0.4 2 -0.3
v -0.3 2 -0.3
v -0.5 2 -0.5
v -0.4 2 -0.5
v -0.4 2.1 0.7
v -0.3 2.1 0.7
v -0.6 2.1 0.6
v -0.4 2.1 0.6
v -0.5 2.1 0.5
v -0.4 2.1 0.5
v -0.3 2.1 0.5
v 0.4 2.1 0.5
v -0.4 2.1 0.3
v -0.3 2.1 0.3
v -0.1 2.1 0.3
v 0.1 2.1 0.3
v -0.4 2.1 -0.3
v -0.3 2.1 -0.3
v -0.1 2.1 -0.3
v 0.1 2.1 -0.3
v -0.5 2.1 -0.5
v -0.4 2.1 -0.5
v -0.3 2.1 -0.5
v 0.4 2.1 -0.5
v -0.6 2.1 -0.6
v -0.4 2.1 -0.6
v -0.4 2.1 -0.7
v -0.3 2.1 -0.7
v -0.5 2.3 0.7
v -0.4 2.3 0.7
v -0.3 2.3 0.7
v 0.1 2.3 0.7
v -0.5 2.3 0.6
v -0.4 2.3 0.6
v -0.3 2.3 0.5
v 0.1 2.3 0.5
v -0.3 2.3 -0.5
v 0.1 2.3 -0.5
v -0.5 2.3 -0.6
v -0.4 2.3 -0.6
v -0.5 2.3 -0.7
v -0.4 2.3 -0.7
v -0.3 2.3 -0.7
v 0.1 2.3 -0.7
v 0.1 2.4 0.7
v 0.3 2.4 0.7
v 0.1 2.4 0.5
v 0.3 2.4 0.5
v 0.1 2.4 -0.5
v 0.3 2.4 -0.5
v 0.1 2.4 -0.7
v 0.3 2.4 -0.7
v 0.3 2.5 0.7
v 0.4 2.5 0.7
v 0.3 2.5 0.5
v 0.4 2.5 0.5
v 0.3 2.5 -0.5
v 0.4 2.5 -0.5
v 0.3 2.5 -0.7
v 0.4 2.5 -0.7
v 0.4 2.6 0.6
v 0.5 2.6 0.6
v 0.4 2.6 0.5
v 0.4 2.6 0.4
v 0.4 2.6 0.2
v 0.4 2.6 -0.2
v 0.4 2.6 -0.4
v 0.4 2.6 -0.5
v 0.4 2.6 -0.6
v 0.5 2.6 -0.6
v -0.2 2 0.4
v 0.2 2 0.4
v -0.1 2 0.3
v 0.1 2 0.3
v -0.1 2 -0.3
v 0.1 2 -0.3
v -0.2 2 -0.4
v 0.2 2 -0.4
v -0.6 2.2 0.6
v -0.5 2.2 0.6
v -0.6 2.2 -0.6
v -0.5 2.2 -0.6
v -0.5 2.4 0.7
v -0.4 2.4 0.7
v -0.5 2.4 -0.7
v -0.4 2.4 -0.7
v -0.4 2.5 0.7
v -0.3 2.5 0.7
v -0.4 2.5 -0.7
v -0.3 2.5 -0.7
v -0.3 2.6 0.7
v -0.2 2.6 0.7
v -0.3 2.6 -0.7
v -0.2 2.6 -0.7
v -0.2 2.7 0.7
v 0.4 2.7 0.7
v -0.1 2.7 0.6
v 0.4 2.7 0.6
v -0.1 2.7 -0.6
v 0.4 2.7 -0.6
v -0.2 2.7 -0.7
v 0.4 2.7 -0.7
v -0.1 2.8 0.6
v 0.5 2.8 0.6
v 0.1 2.8 0.5
v 0.4 2.8 0.5
v 0 2.8 0.4
v 0.1 2.8 0.4
v 0 2.8 -0.4
v 0.1 2.8 -0.4
v 0.1 2.8 -0.5
v 0.4 2.8 -0.5
v -0.1 2.8 -0.6
v 0.5 2.8 -0.6
v 0.1 2.9 0.5
v 0.4 2.9 0.5
v 0 2.9 0.4
v 0.1 2.9 0.4
v 0 2.9 -0.4
v 0.1 2.9 -0.4
v 0.1 2.9 -0.5
v 0.4 2.9 -0.5

# faces
f 3/6/1 2/6/1 1/6/1
f 4/6/1 2/6/1 3/6/1
f 7/6/1 6/6/1 5/6/1
f 8/6/1 6/6/1 7/6/1
f 12/6/1 10/6/1 9/6/1
f 13/6/1 10/6/1 12/6/1
f 15/6/1 12/6/1 11/6/1
f 15/6/1 14/6/1 13/6/1
f 15/6/1 13/6/1 12/6/1
f 16/6/1 14/6/1 15/6/1
f 21/6/1 18/6/1 17/6/1
f 22/6/1 18/6/1 21/6/1
f 23/6/1 20/6/1 19/6/1
f 24/6/1 20/6/1 23/6/1
f 27/6/1 26/6/1 25/6/1
f 28/6/1 26/6/1 27/6/1
f 31/6/1 30/6/1 29/6/1
f 32/6/1 30/6/1 31/6/1
f 37/5/1 34/5/1 33/5/1
f 38/5/1 34/5/1 37/5/1
f 39/5/1 34/5/1 38/5/1
f 40/5/1 36/5/1 35/5/1
f 41/5/1 36/5/1 40/5/1
f 42/5/1 36/5/1 41/5/1
f 43/8/1 38/8/1 37/8/1
f 44/4/1 39/4/1 38/4/1
f 44/8/1 38/8/1 43/8/1
f 44/4/1 40/4/1 39/4/1
f 44/4/1 41/4/1 40/4/1
f 45/8/1 42/8/1 41/8/1
f 45/4/1 41/4/1 44/4/1
f 46/8/1 42/8/1 45/8/1
f 47/4/1 44/4/1 43/4/1
f 47/4/1 45/4/1 44/4/1
f 47/4/1 46/4/1 45/4/1
f 48/4/1 46/4/1 47/4/1
f 51/6/1 50/6/1 49/6/1
f 52/6/1 50/6/1 51/6/1
f 55/2/1 54/2/1 53/2/1
f 56/2/1 54/2/1 55/2/1
f 59/6/1 58/6/1 57/6/1
f 60/6/1 58/6/1 59/6/1
f 63/6/1 62/6/1 61/6/1
f 64/6/1 62/6/1 63/6/1
f 69/6/1 66/6/1 65/6/1
f 70/6/1 66/6/1 69/6/1
f 71/6/1 68/6/1 67/6/1
f 72/6/1 68/6/1 71/6/1
f 73/6/2 74/6/2 77/6/2
f 77/6/2 74/6/2 78/6/2
f 75/6/2 76/6/2 79/6/2
f 79/6/2 76/6/2 80/6/2
f 81/6/2 82/6/2 85/6/2
f 85/6/2 82/6/2 86/6/2
f 83/6/2 84/6/2 89/6/2
f 89/6/2 84/6/2 90/6/2
f 87/6/2 88/6/2 91/6/2
f 91/6/2 88/6/2 92/6/2
f 93/2/2 94/2/2 95/2/2
f 95/2/2 94/2/2 96/2/2
f 97/6/2 98/6/2 101/6/2
f 101/6/2 98/6/2 102/6/2
f 99/6/2 100/6/2 103/6/2
f 103/6/2 100/6/2 104/6/2
f 105/5/2 106/5/2 109/5/2
f 109/5/2 106/5/2 110/5/2
f 107/5/2 108/5/2 111/5/2
f 111/5/2 108/5/2 112/5/2
f 109/8/2 110/8/2 113/8/2
f 110/1/2 111/1/2 114/1/2
f 113/8/2 110/8/2 114/8/2
f 111/8/2 112/8/2 115/8/2
f 114/1/2 111/1/2 115/1/2
f 115/8/2 112/8/2 116/8/2
f 113/4/2 114/4/2 117/4/2
f 114/4/2 115/4/2 117/4/2
f 115/4/2 116/4/2 117/4/2
f 117/4/2 116/4/2 118/4/2
f 119/6/2 120/6/2 123/6/2
f 123/6/2 120/6/2 124/6/2
f 121/6/2 122/6/2 125/6/2
f 125/6/2 122/6/2 126/6/2
f 127/2/2 128/2/2 129/2/2
f 129/2/2 128/2/2 130/2/2
f 127/2/2 129/2/2 131/2/2
f 129/8/2 130/8/2 132/8/2
f 131/2/2 129/2/2 132/2/2
f 130/2/2 128/2/2 133/2/2
f 132/8/2 130/8/2 133/8/2
f 133/2/2 128/2/2 134/2/2
f 131/3/2 132/3/2 135/3/2
f 135/3/2 132/3/2 136/3/2
f 132/2/2 133/2/2 137/2/2
f 136/3/2 132/3/2 137/3/2
f 137/2/2 133/2/2 138/2/2
f 138/2/2 133/2/2 139/2/2
f 133/3/2 134/3/2 140/3/2
f 139/2/2 133/2/2 140/2/2
f 140/3/2 134/3/2 141/3/2
f 141/3/2 134/3/2 142/3/2
f 135/2/2 136/2/2 144/2/2
f 136/7/2 137/7/2 145/7/2
f 137/6/2 138/6/2 145/6/2
f 138/2/2 139/2/2 146/2/2
f 145/6/2 138/6/2 146/6/2
f 139/6/2 140/6/2 147/6/2
f 146/2/2 139/2/2 147/2/2
f 140/7/2 141/7/2 148/7/2
f 147/6/2 140/6/2 148/6/2
f 141/2/2 142/2/2 149/2/2
f 143/6/2 144/6/2 151/6/2
f 144/2/2 136/2/2 152/2/2
f 151/6/2 144/6/2 152/6/2
f 136/7/2 145/7/2 153/7/2
f 152/2/2 136/2/2 153/2/2
f 145/7/2 146/7/2 153/7/2
f 146/2/2 147/2/2 154/2/2
f 153/7/2 146/7/2 154/7/2
f 147/7/2 148/7/2 155/7/2
f 154/2/2 147/2/2 155/2/2
f 141/2/2 149/2/2 156/2/2
f 155/7/2 148/7/2 156/7/2
f 148/7/2 141/7/2 156/7/2
f 149/6/2 150/6/2 157/6/2
f 156/2/2 149/2/2 157/2/2
f 157/6/2 150/6/2 158/6/2
f 143/6/2 151/6/2 159/6/2
f 159/6/2 151/6/2 160/6/2
f 158/6/2 150/6/2 161/6/2
f 161/6/2 150/6/2 162/6/2
f 163/6/2 164/6/2 165/6/2
f 165/6/2 164/6/2 166/6/2
f 167/6/2 168/6/2 169/6/2
f 169/6/2 168/6/2 170/6/2
f 174/6/3 172/6/3 171/6/3
f 175/6/3 172/6/3 174/6/3
f 177/6/3 174/6/3 173/6/3
f 177/6/3 176/6/3 175/6/3
f 177/6/3 175/6/3 174/6/3
f 178/6/3 176/6/3 177/6/3
f 179/6/3 176/6/3 178/6/3
f 181/6/3 180/6/3 179/6/3
f 181/6/3 179/6/3 178/6/3
f 183/6/3 181/6/3 178/6/3
f 183/6/3 182/6/3 181/6/3
f 184/6/3 182/6/3 183/6/3
f 185/6/3 182/6/3 184/6/3
f 186/6/3 182/6/3 185/6/3
f 187/6/3 182/6/3 186/6/3
f 188/6/3 182/6/3 187/6/3
f 191/6/3 190/6/3 189/6/3
f 193/6/3 191/6/3 189/6/3
f 193/6/3 192/6/3 191/6/3
f 194/6/3 192/6/3 193/6/3
f 198/6/3 196/6/3 195/6/3
f 199/6/3 198/6/3 197/6/3
f 200/6/3 196/6/3 198/6/3
f 200/6/3 198/6/3 199/6/3
f 203/6/3 202/6/3 201/6/3
f 204/6/3 202/6/3 203/6/3
f 207/2/3 206/2/3 205/2/3
f 211/2/3 207/2/3 205/2/3
f 211/2/3 208/2/3 207/2/3
f 212/2/3 208/2/3 211/2/3
f 214/2/3 211/2/3 205/2/3
f 215/3/3 212/3/3 211/3/3
f 215/2/3 211/2/3 214/2/3
f 216/2/3 213/2/3 212/2/3
f 216/3/3 212/3/3 215/3/3
f 217/2/3 213/2/3 216/2/3
f 218/6/3 210/6/3 209/6/3
f 219/6/3 210/6/3 218/6/3
f 226/6/3 225/6/3 224/6/3
f 227/6/3 225/6/3 226/6/3
f 228/5/3 221/5/3 220/5/3
f 229/8/3 222/8/3 221/8/3
f 229/5/3 221/5/3 228/5/3
f 230/4/3 223/4/3 222/4/3
f 230/8/3 222/8/3 229/8/3
f 231/4/3 223/4/3 230/4/3
f 234/6/3 233/6/3 232/6/3
f 235/6/3 233/6/3 234/6/3
f 238/2/3 237/2/3 236/2/3
f 239/2/3 237/2/3 238/2/3
f 242/5/3 241/5/3 240/5/3
f 243/5/3 242/5/3 240/5/3
f 244/5/3 243/5/3 240/5/3
f 245/5/3 243/5/3 244/5/3
f 246/5/4 247/5/4 248/5/4
f 246/5/4 248/5/4 249/5/4
f 246/5/4 249/5/4 250/5/4
f 250/5/4 249/5/4 251/5/4
f 252/6/4 253/6/4 254/6/4
f 254/6/4 253/6/4 255/6/4
f 256/2/4 257/2/4 258/2/4
f 258/2/4 257/2/4 259/2/4
f 264/6/4 265/6/4 266/6/4
f 266/6/4 265/6/4 267/6/4
f 260/5/4 261/5/4 268/5/4
f 261/8/4 262/8/4 269/8/4
f 268/5/4 261/5/4 269/5/4
f 262/4/4 263/4/4 270/4/4
f 269/8/4 262/8/4 270/8/4
f 270/4/4 263/4/4 271/4/4
f 272/6/4 273/6/4 274/6/4
f 274/6/4 273/6/4 275/6/4
f 276/2/4 277/2/4 278/2/4
f 276/2/4 278/2/4 282/2/4
f 278/2/4 279/2/4 282/2/4
f 282/2/4 279/2/4 283/2/4
f 276/2/4 282/2/4 285/2/4
f 282/3/4 283/3/4 286/3/4
f 285/2/4 282/2/4 286/2/4
f 283/2/4 284/2/4 287/2/4
f 286/3/4 283/3/4 287/3/4
f 287/2/4 284/2/4 288/2/4
f 280/6/4 281/6/4 289/6/4
f 289/6/4 281/6/4 290/6/4
f 291/6/4 292/6/4 293/6/4
f 291/6/4 293/6/4 295/6/4
f 293/6/4 294/6/4 295/6/4
f 295/6/4 294/6/4 296/6/4
f 297/6/4 298/6/4 300/6/4
f 299/6/4 300/6/4 301/6/4
f 300/6/4 298/6/4 302/6/4
f 301/6/4 300/6/4 302/6/4
f 303/6/4 304/6/4 306/6/4
f 306/6/4 304/6/4 307/6/4
f 305/6/4 306/6/4 309/6/4
f 307/6/4 308/6/4 309/6/4
f 306/6/4 307/6/4 309/6/4
f 309/6/4 308/6/4 310/6/4
f 310/6/4 308/6/4 311/6/4
f 311/6/4 312/6/4 313/6/4
f 310/6/4 311/6/4 313/6/4
f 310/6/4 313/6/4 315/6/4
f 313/6/4 314/6/4 315/6/4
f 315/6/4 314/6/4 316/6/4
f 316/6/4 314/6/4 317/6/4
f 317/6/4 314/6/4 318/6/4
f 318/6/4 314/6/4 319/6/4
f 319/6/4 314/6/4 320/6/4
f 323/5/5 322/5/5 321/5/5
f 324/5/5 322/5/5 323/5/5
f 325/5/5 323/5/5 321/5/5
f 325/6/5 324/6/5 323/6/5
f 326/5/5 322/5/5 324/5/5
f 326/6/5 324/6/5 325/6/5
f 327/5/5 325/5/5 321/5/5
f 327/5/5 326/5/5 325/5/5
f 328/5/5 322/5/5 326/5/5
f 328/5/5 326/5/5 327/5/5
f 331/5/5 330/5/5 329/5/5
f 332/5/5 330/5/5 331/5/5
f 333/5/5 331/5/5 329/5/5
f 333/6/5 332/6/5 331/6/5
f 334/5/5 330/5/5 332/5/5
f 334/6/5 332/6/5 333/6/5
f 335/5/5 333/5/5 329/5/5
f 335/5/5 334/5/5 333/5/5
f 336/5/5 330/5/5 334/5/5
f 336/5/5 334/5/5 335/5/5
f 341/4/5 338/4/5 337/4/5
f 342/6/5 339/6/5 338/6/5
f 342/4/5 338/4/5 341/4/5
f 343/1/5 340/1/5 339/1/5
f 343/6/5 339/6/5 342/6/5
f 344/1/5 340/1/5 343/1/5
f 347/6/5 346/6/5 345/6/5
f 349/6/5 347/6/5 345/6/5
f 349/6/5 348/6/5 347/6/5
f 350/6/5 348/6/5 349/6/5
f 351/6/5 349/6/5 345/6/5
f 352/6/5 349/6/5 351/6/5
f 356/6/5 354/6/5 353/6/5
f 357/6/5 356/6/5 355/6/5
f 358/6/5 354/6/5 356/6/5
f 358/6/5 356/6/5 357/6/5
f 359/6/5 354/6/5 358/6/5
f 361/6/5 359/6/5 358/6/5
f 362/2/5 360/2/5 359/2/5
f 362/6/5 359/6/5 361/6/5
f 363/2/5 360/2/5 362/2/5
f 364/2/5 360/2/5 363/2/5
f 366/2/5 363/2/5 362/2/5
f 367/2/5 363/2/5 366/2/5
f 368/2/5 360/2/5 364/2/5
f 369/6/5 357/6/5 355/6/5
f 370/6/5 366/6/5 365/6/5
f 371/2/5 368/2/5 367/2/5
f 371/2/5 367/2/5 366/2/5
f 371/6/5 366/6/5 370/6/5
f 372/2/5 360/2/5 368/2/5
f 372/2/5 368/2/5 371/2/5
f 373/6/5 370/6/5 369/6/5
f 373/6/5 369/6/5 355/6/5
f 373/6/5 371/6/5 370/6/5
f 374/6/5 371/6/5 373/6/5
f 375/6/5 371/6/5 374/6/5
f 376/6/5 371/6/5 375/6/5
f 381/6/5 378/6/5 377/6/5
f 382/6/5 378/6/5 381/6/5
f 383/6/5 380/6/5 379/6/5
f 384/6/5 380/6/5 383/6/5
f 389/6/5 388/6/5 387/6/5
f 390/6/5 388/6/5 389/6/5
f 391/6/5 386/6/5 385/6/5
f 392/6/5 386/6/5 391/6/5
f 395/6/5 394/6/5 393/6/5
f 396/6/5 394/6/5 395/6/5
f 399/6/5 398/6/5 397/6/5
f 400/6/5 398/6/5 399/6/5
f 403/6/5 402/6/5 401/6/5
f 404/6/5 402/6/5 403/6/5
f 407/6/5 406/6/5 405/6/5
f 408/6/5 406/6/5 407/6/5
f 411/6/5 410/6/5 409/6/5
f 412/6/5 410/6/5 411/6/5
f 413/6/5 410/6/5 412/6/5
f 414/6/5 410/6/5 413/6/5
f 415/6/5 410/6/5 414/6/5
f 416/6/5 410/6/5 415/6/5
f 417/6/5 410/6/5 416/6/5
f 418/6/5 410/6/5 417/6/5
f 419/4/6 420/4/6 421/4/6
f 421/4/6 420/4/6 422/4/6
f 419/4/6 421/4/6 423/4/6
f 422/4/6 420/4/6 424/4/6
f 419/4/6 423/4/6 425/4/6
f 423/4/6 424/4/6 425/4/6
f 424/4/6 420/4/6 426/4/6
f 425/4/6 424/4/6 426/4/6
f 427/6/6 428/6/6 429/6/6
f 429/6/6 428/6/6 430/6/6
f 431/6/6 432/6/6 433/6/6
f 433/6/6 432/6/6 434/6/6
f 435/6/6 436/6/6 437/6/6
f 437/6/6 436/6/6 438/6/6
f 439/6/6 440/6/6 441/6/6
f 441/6/6 440/6/6 442/6/6
f 443/6/6 444/6/6 445/6/6
f 445/6/6 444/6/6 446/6/6
f 443/6/6 445/6/6 447/6/6
f 443/6/6 447/6/6 449/6/6
f 447/6/6 448/6/6 449/6/6
f 449/6/6 448/6/6 450/6/6
f 451/6/6 452/6/6 453/6/6
f 453/6/6 452/6/6 454/6/6
f 451/6/6 453/6/6 455/6/6
f 455/6/6 453/6/6 456/6/6
f 451/6/6 455/6/6 457/6/6
f 457/6/6 458/6/6 459/6/6
f 454/6/6 452/6/6 460/6/6
f 457/6/6 459/6/6 461/6/6
f 459/6/6 460/6/6 461/6/6
f 451/6/6 457/6/6 461/6/6
f 460/6/6 452/6/6 462/6/6
f 461/6/6 460/6/6 462/6/6
f 463/6/6 464/6/6 466/6/6
f 465/6/6 466/6/6 467/6/6
f 466/6/6 464/6/6 468/6/6
f 467/6/6 466/6/6 468/6/6
f 468/6/6 464/6/6 469/6/6
f 469/6/6 464/6/6 470/6/6
