# MagicaVoxel @ Ephtracy

# group
o 

# material
mtllib perso1b-0.mtl
usemtl palette

# normals
vn -1 0 0
vn 1 0 0
vn 0 0 1
vn 0 0 -1
vn 0 -1 0
vn 0 1 0

# texcoords
vt 0.0566406 0.5
vt 0.958984 0.5
vt 0.994141 0.5

# verts
v -0.1 1.2 0.4
v -0.1 1.2 0.2
v -0.1 1.2 -0.2
v -0.1 1.2 -0.4
v -0.1 1.3 0.4
v -0.1 1.3 0.2
v -0.1 1.3 -0.2
v -0.1 1.3 -0.4
v -0.1 1.4 0.4
v -0.1 1.4 0.2
v -0.1 1.4 -0.2
v -0.1 1.4 -0.4
v -0.1 1.5 0.4
v -0.1 1.5 0.3
v -0.1 1.5 -0.3
v -0.1 1.5 -0.4
v -0.1 1.6 0.3
v -0.1 1.6 0.2
v -0.1 1.6 -0.2
v -0.1 1.6 -0.3
v 0.1 1.2 0.4
v 0.1 1.2 0.2
v 0.1 1.2 -0.2
v 0.1 1.2 -0.4
v 0.1 1.3 0.4
v 0.1 1.3 0.2
v 0.1 1.3 -0.2
v 0.1 1.3 -0.4
v 0.1 1.4 0.4
v 0.1 1.4 0.2
v 0.1 1.4 -0.2
v 0.1 1.4 -0.4
v 0.1 1.5 0.4
v 0.1 1.5 0.3
v 0.1 1.5 -0.3
v 0.1 1.5 -0.4
v 0.1 1.6 0.3
v 0.1 1.6 0.2
v 0.1 1.6 -0.2
v 0.1 1.6 -0.3
v -0.1 1.2 0.4
v -0.1 1.3 0.4
v -0.1 1.4 0.4
v -0.1 1.5 0.4
v 0.1 1.2 0.4
v 0.1 1.3 0.4
v 0.1 1.4 0.4
v 0.1 1.5 0.4
v -0.1 1.5 0.3
v -0.1 1.6 0.3
v 0.1 1.5 0.3
v 0.1 1.6 0.3
v -0.1 1.2 -0.2
v -0.1 1.3 -0.2
v -0.1 1.4 -0.2
v -0.1 1.6 -0.2
v 0.1 1.2 -0.2
v 0.1 1.3 -0.2
v 0.1 1.4 -0.2
v 0.1 1.6 -0.2
v -0.1 1.2 0.2
v -0.1 1.3 0.2
v -0.1 1.4 0.2
v -0.1 1.6 0.2
v 0.1 1.2 0.2
v 0.1 1.3 0.2
v 0.1 1.4 0.2
v 0.1 1.6 0.2
v -0.1 1.5 -0.3
v -0.1 1.6 -0.3
v 0.1 1.5 -0.3
v 0.1 1.6 -0.3
v -0.1 1.2 -0.4
v -0.1 1.3 -0.4
v -0.1 1.4 -0.4
v -0.1 1.5 -0.4
v 0.1 1.2 -0.4
v 0.1 1.3 -0.4
v 0.1 1.4 -0.4
v 0.1 1.5 -0.4
v -0.1 1.2 0.4
v 0.1 1.2 0.4
v -0.1 1.2 0.2
v 0.1 1.2 0.2
v -0.1 1.2 -0.2
v 0.1 1.2 -0.2
v -0.1 1.2 -0.4
v 0.1 1.2 -0.4
v -0.1 1.5 0.4
v 0.1 1.5 0.4
v -0.1 1.5 0.3
v 0.1 1.5 0.3
v -0.1 1.5 -0.3
v 0.1 1.5 -0.3
v -0.1 1.5 -0.4
v 0.1 1.5 -0.4
v -0.1 1.6 0.3
v 0.1 1.6 0.3
v -0.1 1.6 0.2
v 0.1 1.6 0.2
v -0.1 1.6 -0.2
v 0.1 1.6 -0.2
v -0.1 1.6 -0.3
v 0.1 1.6 -0.3

# faces
f 5/3/1 2/3/1 1/3/1
f 6/3/1 2/3/1 5/3/1
f 7/3/1 4/3/1 3/3/1
f 8/3/1 4/3/1 7/3/1
f 9/2/1 6/2/1 5/2/1
f 10/2/1 6/2/1 9/2/1
f 11/2/1 8/2/1 7/2/1
f 12/2/1 8/2/1 11/2/1
f 13/1/1 10/1/1 9/1/1
f 14/1/1 10/1/1 13/1/1
f 15/1/1 12/1/1 11/1/1
f 16/1/1 12/1/1 15/1/1
f 17/1/1 10/1/1 14/1/1
f 18/1/1 10/1/1 17/1/1
f 19/1/1 15/1/1 11/1/1
f 20/1/1 15/1/1 19/1/1
f 21/3/2 22/3/2 25/3/2
f 25/3/2 22/3/2 26/3/2
f 23/3/2 24/3/2 27/3/2
f 27/3/2 24/3/2 28/3/2
f 25/2/2 26/2/2 29/2/2
f 29/2/2 26/2/2 30/2/2
f 27/2/2 28/2/2 31/2/2
f 31/2/2 28/2/2 32/2/2
f 29/1/2 30/1/2 33/1/2
f 33/1/2 30/1/2 34/1/2
f 31/1/2 32/1/2 35/1/2
f 35/1/2 32/1/2 36/1/2
f 34/1/2 30/1/2 37/1/2
f 37/1/2 30/1/2 38/1/2
f 31/1/2 35/1/2 39/1/2
f 39/1/2 35/1/2 40/1/2
f 45/3/3 42/3/3 41/3/3
f 46/2/3 43/2/3 42/2/3
f 46/3/3 42/3/3 45/3/3
f 47/1/3 44/1/3 43/1/3
f 47/2/3 43/2/3 46/2/3
f 48/1/3 44/1/3 47/1/3
f 51/1/3 50/1/3 49/1/3
f 52/1/3 50/1/3 51/1/3
f 57/3/3 54/3/3 53/3/3
f 58/2/3 55/2/3 54/2/3
f 58/3/3 54/3/3 57/3/3
f 59/1/3 56/1/3 55/1/3
f 59/2/3 55/2/3 58/2/3
f 60/1/3 56/1/3 59/1/3
f 61/3/4 62/3/4 65/3/4
f 62/2/4 63/2/4 66/2/4
f 65/3/4 62/3/4 66/3/4
f 63/1/4 64/1/4 67/1/4
f 66/2/4 63/2/4 67/2/4
f 67/1/4 64/1/4 68/1/4
f 69/1/4 70/1/4 71/1/4
f 71/1/4 70/1/4 72/1/4
f 73/3/4 74/3/4 77/3/4
f 74/2/4 75/2/4 78/2/4
f 77/3/4 74/3/4 78/3/4
f 75/1/4 76/1/4 79/1/4
f 78/2/4 75/2/4 79/2/4
f 79/1/4 76/1/4 80/1/4
f 83/3/5 82/3/5 81/3/5
f 84/3/5 82/3/5 83/3/5
f 87/3/5 86/3/5 85/3/5
f 88/3/5 86/3/5 87/3/5
f 89/1/6 90/1/6 91/1/6
f 91/1/6 90/1/6 92/1/6
f 93/1/6 94/1/6 95/1/6
f 95/1/6 94/1/6 96/1/6
f 97/1/6 98/1/6 99/1/6
f 99/1/6 98/1/6 100/1/6
f 101/1/6 102/1/6 103/1/6
f 103/1/6 102/1/6 104/1/6
