# MagicaVoxel @ Ephtracy

# group
o 

# material
mtllib balais.mtl
usemtl palette

# normals
vn -1 0 0
vn 1 0 0
vn 0 0 1
vn 0 0 -1
vn 0 -1 0
vn 0 1 0

# texcoords
vt 0.0136719 0.5
vt 0.0449219 0.5
vt 0.873047 0.5

# verts
v 0.4 2 -0.1
v 0.4 2 -0.2
v 0.4 2 -0.3
v 0.4 2 -0.4
v 0.4 2 -0.5
v 0.4 2 -0.6
v 0.4 2 -0.7
v 0.4 2 -0.8
v 0.4 2.3 -0.1
v 0.4 2.3 -0.2
v 0.4 2.3 -0.3
v 0.4 2.3 -0.6
v 0.4 2.3 -0.7
v 0.4 2.3 -0.8
v 0.4 2.4 -0.2
v 0.4 2.4 -0.3
v 0.4 2.4 -0.4
v 0.4 2.4 -0.5
v 0.4 2.4 -0.6
v 0.4 2.4 -0.7
v 0.4 2.5 -0.3
v 0.4 2.5 -0.4
v 0.4 2.5 -0.5
v 0.4 2.5 -0.6
v 0.4 3.2 -0.4
v 0.4 3.2 -0.5
v 0.5 2 -0.1
v 0.5 2 -0.2
v 0.5 2 -0.3
v 0.5 2 -0.4
v 0.5 2 -0.5
v 0.5 2 -0.6
v 0.5 2 -0.7
v 0.5 2 -0.8
v 0.5 2.3 -0.1
v 0.5 2.3 -0.2
v 0.5 2.3 -0.3
v 0.5 2.3 -0.6
v 0.5 2.3 -0.7
v 0.5 2.3 -0.8
v 0.5 2.4 -0.2
v 0.5 2.4 -0.3
v 0.5 2.4 -0.4
v 0.5 2.4 -0.5
v 0.5 2.4 -0.6
v 0.5 2.4 -0.7
v 0.5 2.5 -0.3
v 0.5 2.5 -0.4
v 0.5 2.5 -0.5
v 0.5 2.5 -0.6
v 0.5 3.2 -0.4
v 0.5 3.2 -0.5
v 0.4 2 -0.1
v 0.4 2.3 -0.1
v 0.5 2 -0.1
v 0.5 2.3 -0.1
v 0.4 2.3 -0.2
v 0.4 2.4 -0.2
v 0.5 2.3 -0.2
v 0.5 2.4 -0.2
v 0.4 2.4 -0.3
v 0.4 2.5 -0.3
v 0.5 2.4 -0.3
v 0.5 2.5 -0.3
v 0.4 2.5 -0.4
v 0.4 3.2 -0.4
v 0.5 2.5 -0.4
v 0.5 3.2 -0.4
v 0.4 2.5 -0.5
v 0.4 3.2 -0.5
v 0.5 2.5 -0.5
v 0.5 3.2 -0.5
v 0.4 2.4 -0.6
v 0.4 2.5 -0.6
v 0.5 2.4 -0.6
v 0.5 2.5 -0.6
v 0.4 2.3 -0.7
v 0.4 2.4 -0.7
v 0.5 2.3 -0.7
v 0.5 2.4 -0.7
v 0.4 2 -0.8
v 0.4 2.3 -0.8
v 0.5 2 -0.8
v 0.5 2.3 -0.8
v 0.4 2 -0.1
v 0.5 2 -0.1
v 0.4 2 -0.2
v 0.5 2 -0.2
v 0.4 2 -0.3
v 0.5 2 -0.3
v 0.4 2 -0.4
v 0.5 2 -0.4
v 0.4 2 -0.5
v 0.5 2 -0.5
v 0.4 2 -0.6
v 0.5 2 -0.6
v 0.4 2 -0.7
v 0.5 2 -0.7
v 0.4 2 -0.8
v 0.5 2 -0.8
v 0.4 2.3 -0.1
v 0.5 2.3 -0.1
v 0.4 2.3 -0.2
v 0.5 2.3 -0.2
v 0.4 2.3 -0.7
v 0.5 2.3 -0.7
v 0.4 2.3 -0.8
v 0.5 2.3 -0.8
v 0.4 2.4 -0.2
v 0.5 2.4 -0.2
v 0.4 2.4 -0.3
v 0.5 2.4 -0.3
v 0.4 2.4 -0.6
v 0.5 2.4 -0.6
v 0.4 2.4 -0.7
v 0.5 2.4 -0.7
v 0.4 2.5 -0.3
v 0.5 2.5 -0.3
v 0.4 2.5 -0.4
v 0.5 2.5 -0.4
v 0.4 2.5 -0.5
v 0.5 2.5 -0.5
v 0.4 2.5 -0.6
v 0.5 2.5 -0.6
v 0.4 3.2 -0.4
v 0.5 3.2 -0.4
v 0.4 3.2 -0.5
v 0.5 3.2 -0.5

# faces
f 9/1/1 2/1/1 1/1/1
f 10/2/1 3/2/1 2/2/1
f 10/1/1 2/1/1 9/1/1
f 11/1/1 4/1/1 3/1/1
f 11/2/1 3/2/1 10/2/1
f 12/1/1 6/1/1 5/1/1
f 12/2/1 7/2/1 6/2/1
f 13/1/1 8/1/1 7/1/1
f 13/2/1 7/2/1 12/2/1
f 14/1/1 8/1/1 13/1/1
f 15/1/1 11/1/1 10/1/1
f 16/1/1 4/1/1 11/1/1
f 16/1/1 11/1/1 15/1/1
f 17/2/1 5/2/1 4/2/1
f 17/1/1 4/1/1 16/1/1
f 18/1/1 12/1/1 5/1/1
f 18/2/1 5/2/1 17/2/1
f 18/1/1 13/1/1 12/1/1
f 19/1/1 13/1/1 18/1/1
f 20/1/1 13/1/1 19/1/1
f 21/1/1 17/1/1 16/1/1
f 21/1/1 19/1/1 18/1/1
f 21/1/1 18/1/1 17/1/1
f 22/1/1 19/1/1 21/1/1
f 23/1/1 19/1/1 22/1/1
f 24/1/1 19/1/1 23/1/1
f 25/3/1 23/3/1 22/3/1
f 26/3/1 23/3/1 25/3/1
f 27/1/2 28/1/2 35/1/2
f 28/2/2 29/2/2 36/2/2
f 35/1/2 28/1/2 36/1/2
f 29/1/2 30/1/2 37/1/2
f 36/2/2 29/2/2 37/2/2
f 31/1/2 32/1/2 38/1/2
f 32/2/2 33/2/2 38/2/2
f 33/1/2 34/1/2 39/1/2
f 38/2/2 33/2/2 39/2/2
f 39/1/2 34/1/2 40/1/2
f 36/1/2 37/1/2 41/1/2
f 37/1/2 30/1/2 42/1/2
f 41/1/2 37/1/2 42/1/2
f 30/2/2 31/2/2 43/2/2
f 42/1/2 30/1/2 43/1/2
f 31/1/2 38/1/2 44/1/2
f 43/2/2 31/2/2 44/2/2
f 38/1/2 39/1/2 44/1/2
f 44/1/2 39/1/2 45/1/2
f 45/1/2 39/1/2 46/1/2
f 42/1/2 43/1/2 47/1/2
f 44/1/2 45/1/2 47/1/2
f 43/1/2 44/1/2 47/1/2
f 47/1/2 45/1/2 48/1/2
f 48/1/2 45/1/2 49/1/2
f 49/1/2 45/1/2 50/1/2
f 48/3/2 49/3/2 51/3/2
f 51/3/2 49/3/2 52/3/2
f 55/1/3 54/1/3 53/1/3
f 56/1/3 54/1/3 55/1/3
f 59/1/3 58/1/3 57/1/3
f 60/1/3 58/1/3 59/1/3
f 63/1/3 62/1/3 61/1/3
f 64/1/3 62/1/3 63/1/3
f 67/3/3 66/3/3 65/3/3
f 68/3/3 66/3/3 67/3/3
f 69/3/4 70/3/4 71/3/4
f 71/3/4 70/3/4 72/3/4
f 73/1/4 74/1/4 75/1/4
f 75/1/4 74/1/4 76/1/4
f 77/1/4 78/1/4 79/1/4
f 79/1/4 78/1/4 80/1/4
f 81/1/4 82/1/4 83/1/4
f 83/1/4 82/1/4 84/1/4
f 87/1/5 86/1/5 85/1/5
f 88/1/5 86/1/5 87/1/5
f 89/2/5 88/2/5 87/2/5
f 90/2/5 88/2/5 89/2/5
f 91/1/5 90/1/5 89/1/5
f 92/1/5 90/1/5 91/1/5
f 93/2/5 92/2/5 91/2/5
f 94/2/5 92/2/5 93/2/5
f 95/1/5 94/1/5 93/1/5
f 96/1/5 94/1/5 95/1/5
f 97/2/5 96/2/5 95/2/5
f 98/2/5 96/2/5 97/2/5
f 99/1/5 98/1/5 97/1/5
f 100/1/5 98/1/5 99/1/5
f 101/1/6 102/1/6 103/1/6
f 103/1/6 102/1/6 104/1/6
f 105/1/6 106/1/6 107/1/6
f 107/1/6 106/1/6 108/1/6
f 109/1/6 110/1/6 111/1/6
f 111/1/6 110/1/6 112/1/6
f 113/1/6 114/1/6 115/1/6
f 115/1/6 114/1/6 116/1/6
f 117/1/6 118/1/6 119/1/6
f 119/1/6 118/1/6 120/1/6
f 121/1/6 122/1/6 123/1/6
f 123/1/6 122/1/6 124/1/6
f 125/3/6 126/3/6 127/3/6
f 127/3/6 126/3/6 128/3/6
