# MagicaVoxel @ Ephtracy

# group
o 

# material
mtllib balais.mtl
usemtl palette

# normals
vn -1 0 0
vn 1 0 0
vn 0 0 1
vn 0 0 -1
vn 0 -1 0
vn 0 1 0

# texcoords
vt 0.0136719 0.5
vt 0.0449219 0.5
vt 0.701172 0.5
vt 0.873047 0.5
vt 0.982422 0.5

# verts
v 0.4 2 0
v 0.4 2 -0.1
v 0.4 2 -0.2
v 0.4 2 -0.3
v 0.4 2 -0.4
v 0.4 2 -0.5
v 0.4 2 -0.6
v 0.4 2 -0.7
v 0.4 2 -0.8
v 0.4 2 -0.9
v 0.4 2 -1
v 0.4 2 -1.1
v 0.4 2 -1.2
v 0.4 2 -1.3
v 0.4 2 -1.4
v 0.4 2 -1.5
v 0.4 2 -1.6
v 0.4 2 -1.7
v 0.4 2.2 0
v 0.4 2.2 -0.1
v 0.4 2.2 -0.2
v 0.4 2.2 -0.3
v 0.4 2.2 -0.4
v 0.4 2.2 -0.5
v 0.4 2.2 -0.6
v 0.4 2.2 -0.7
v 0.4 2.2 -1
v 0.4 2.2 -1.1
v 0.4 2.2 -1.2
v 0.4 2.2 -1.3
v 0.4 2.2 -1.4
v 0.4 2.2 -1.5
v 0.4 2.2 -1.6
v 0.4 2.2 -1.7
v 0.4 2.3 0
v 0.4 2.3 -0.6
v 0.4 2.3 -0.7
v 0.4 2.3 -0.8
v 0.4 2.3 -0.9
v 0.4 2.3 -1
v 0.4 2.3 -1.1
v 0.4 2.3 -1.7
v 0.4 2.4 -0.6
v 0.4 2.4 -0.7
v 0.4 2.4 -0.8
v 0.4 2.4 -0.9
v 0.4 2.4 -1
v 0.4 2.4 -1.1
v 0.4 2.5 -0.7
v 0.4 2.5 -0.8
v 0.4 2.5 -0.9
v 0.4 2.5 -1
v 0.4 3.2 -0.8
v 0.4 3.2 -0.9
v 0.5 2 0
v 0.5 2 -0.1
v 0.5 2 -0.2
v 0.5 2 -0.3
v 0.5 2 -0.4
v 0.5 2 -0.5
v 0.5 2 -0.6
v 0.5 2 -0.7
v 0.5 2 -0.8
v 0.5 2 -0.9
v 0.5 2 -1
v 0.5 2 -1.1
v 0.5 2 -1.2
v 0.5 2 -1.3
v 0.5 2 -1.4
v 0.5 2 -1.5
v 0.5 2 -1.6
v 0.5 2 -1.7
v 0.5 2.2 0
v 0.5 2.2 -0.1
v 0.5 2.2 -0.2
v 0.5 2.2 -0.3
v 0.5 2.2 -0.4
v 0.5 2.2 -0.5
v 0.5 2.2 -0.6
v 0.5 2.2 -0.7
v 0.5 2.2 -1
v 0.5 2.2 -1.1
v 0.5 2.2 -1.2
v 0.5 2.2 -1.3
v 0.5 2.2 -1.4
v 0.5 2.2 -1.5
v 0.5 2.2 -1.6
v 0.5 2.2 -1.7
v 0.5 2.3 0
v 0.5 2.3 -0.6
v 0.5 2.3 -0.7
v 0.5 2.3 -0.8
v 0.5 2.3 -0.9
v 0.5 2.3 -1
v 0.5 2.3 -1.1
v 0.5 2.3 -1.7
v 0.5 2.4 -0.6
v 0.5 2.4 -0.7
v 0.5 2.4 -0.8
v 0.5 2.4 -0.9
v 0.5 2.4 -1
v 0.5 2.4 -1.1
v 0.5 2.5 -0.7
v 0.5 2.5 -0.8
v 0.5 2.5 -0.9
v 0.5 2.5 -1
v 0.5 3.2 -0.8
v 0.5 3.2 -0.9
v 0.4 2 0
v 0.4 2.2 0
v 0.4 2.3 0
v 0.5 2 0
v 0.5 2.2 0
v 0.5 2.3 0
v 0.4 2.3 -0.6
v 0.4 2.4 -0.6
v 0.5 2.3 -0.6
v 0.5 2.4 -0.6
v 0.4 2.4 -0.7
v 0.4 2.5 -0.7
v 0.5 2.4 -0.7
v 0.5 2.5 -0.7
v 0.4 2.5 -0.8
v 0.4 3.2 -0.8
v 0.5 2.5 -0.8
v 0.5 3.2 -0.8
v 0.4 2.5 -0.9
v 0.4 3.2 -0.9
v 0.5 2.5 -0.9
v 0.5 3.2 -0.9
v 0.4 2.4 -1
v 0.4 2.5 -1
v 0.5 2.4 -1
v 0.5 2.5 -1
v 0.4 2.3 -1.1
v 0.4 2.4 -1.1
v 0.5 2.3 -1.1
v 0.5 2.4 -1.1
v 0.4 2 -1.7
v 0.4 2.2 -1.7
v 0.4 2.3 -1.7
v 0.5 2 -1.7
v 0.5 2.2 -1.7
v 0.5 2.3 -1.7
v 0.4 2 0
v 0.5 2 0
v 0.4 2 -0.1
v 0.5 2 -0.1
v 0.4 2 -0.2
v 0.5 2 -0.2
v 0.4 2 -0.3
v 0.5 2 -0.3
v 0.4 2 -0.4
v 0.5 2 -0.4
v 0.4 2 -0.5
v 0.5 2 -0.5
v 0.4 2 -0.6
v 0.5 2 -0.6
v 0.4 2 -0.7
v 0.5 2 -0.7
v 0.4 2 -0.8
v 0.5 2 -0.8
v 0.4 2 -0.9
v 0.5 2 -0.9
v 0.4 2 -1
v 0.5 2 -1
v 0.4 2 -1.1
v 0.5 2 -1.1
v 0.4 2 -1.2
v 0.5 2 -1.2
v 0.4 2 -1.3
v 0.5 2 -1.3
v 0.4 2 -1.4
v 0.5 2 -1.4
v 0.4 2 -1.5
v 0.5 2 -1.5
v 0.4 2 -1.6
v 0.5 2 -1.6
v 0.4 2 -1.7
v 0.5 2 -1.7
v 0.4 2.3 0
v 0.5 2.3 0
v 0.4 2.3 -0.6
v 0.5 2.3 -0.6
v 0.4 2.3 -1.1
v 0.5 2.3 -1.1
v 0.4 2.3 -1.7
v 0.5 2.3 -1.7
v 0.4 2.4 -0.6
v 0.5 2.4 -0.6
v 0.4 2.4 -0.7
v 0.5 2.4 -0.7
v 0.4 2.4 -1
v 0.5 2.4 -1
v 0.4 2.4 -1.1
v 0.5 2.4 -1.1
v 0.4 2.5 -0.7
v 0.5 2.5 -0.7
v 0.4 2.5 -0.8
v 0.5 2.5 -0.8
v 0.4 2.5 -0.9
v 0.5 2.5 -0.9
v 0.4 2.5 -1
v 0.5 2.5 -1
v 0.4 3.2 -0.8
v 0.5 3.2 -0.8
v 0.4 3.2 -0.9
v 0.5 3.2 -0.9

# faces
f 19/1/1 2/1/1 1/1/1
f 20/2/1 3/2/1 2/2/1
f 20/1/1 2/1/1 19/1/1
f 21/1/1 4/1/1 3/1/1
f 21/2/1 3/2/1 20/2/1
f 22/2/1 5/2/1 4/2/1
f 22/1/1 4/1/1 21/1/1
f 23/1/1 6/1/1 5/1/1
f 23/2/1 5/2/1 22/2/1
f 24/2/1 7/2/1 6/2/1
f 24/1/1 6/1/1 23/1/1
f 25/1/1 8/1/1 7/1/1
f 25/2/1 7/2/1 24/2/1
f 26/2/1 9/2/1 8/2/1
f 26/1/1 8/1/1 25/1/1
f 27/2/1 11/2/1 10/2/1
f 27/1/1 12/1/1 11/1/1
f 28/2/1 13/2/1 12/2/1
f 28/1/1 12/1/1 27/1/1
f 29/1/1 14/1/1 13/1/1
f 29/2/1 13/2/1 28/2/1
f 30/2/1 15/2/1 14/2/1
f 30/1/1 14/1/1 29/1/1
f 31/1/1 16/1/1 15/1/1
f 31/2/1 15/2/1 30/2/1
f 32/2/1 17/2/1 16/2/1
f 32/1/1 16/1/1 31/1/1
f 33/1/1 18/1/1 17/1/1
f 33/2/1 17/2/1 32/2/1
f 34/1/1 18/1/1 33/1/1
f 35/5/1 20/5/1 19/5/1
f 35/5/1 21/5/1 20/5/1
f 35/5/1 22/5/1 21/5/1
f 35/5/1 23/5/1 22/5/1
f 35/5/1 24/5/1 23/5/1
f 35/5/1 25/5/1 24/5/1
f 35/5/1 26/5/1 25/5/1
f 36/5/1 26/5/1 35/5/1
f 37/2/1 9/2/1 26/2/1
f 37/5/1 26/5/1 36/5/1
f 38/1/1 10/1/1 9/1/1
f 38/2/1 9/2/1 37/2/1
f 39/2/1 27/2/1 10/2/1
f 39/1/1 10/1/1 38/1/1
f 40/5/1 32/5/1 31/5/1
f 40/2/1 27/2/1 39/2/1
f 40/5/1 34/5/1 33/5/1
f 40/5/1 33/5/1 32/5/1
f 40/5/1 31/5/1 30/5/1
f 40/5/1 28/5/1 27/5/1
f 40/5/1 30/5/1 29/5/1
f 40/5/1 29/5/1 28/5/1
f 41/5/1 34/5/1 40/5/1
f 42/5/1 34/5/1 41/5/1
f 43/3/1 38/3/1 37/3/1
f 43/3/1 37/3/1 36/3/1
f 44/3/1 38/3/1 43/3/1
f 45/2/1 39/2/1 38/2/1
f 45/3/1 38/3/1 44/3/1
f 46/3/1 41/3/1 40/3/1
f 46/2/1 39/2/1 45/2/1
f 46/3/1 40/3/1 39/3/1
f 47/3/1 41/3/1 46/3/1
f 48/3/1 41/3/1 47/3/1
f 49/3/1 45/3/1 44/3/1
f 49/3/1 47/3/1 46/3/1
f 49/3/1 46/3/1 45/3/1
f 50/3/1 47/3/1 49/3/1
f 51/3/1 47/3/1 50/3/1
f 52/3/1 47/3/1 51/3/1
f 53/4/1 51/4/1 50/4/1
f 54/4/1 51/4/1 53/4/1
f 55/1/2 56/1/2 73/1/2
f 56/2/2 57/2/2 74/2/2
f 73/1/2 56/1/2 74/1/2
f 57/1/2 58/1/2 75/1/2
f 74/2/2 57/2/2 75/2/2
f 58/2/2 59/2/2 76/2/2
f 75/1/2 58/1/2 76/1/2
f 59/1/2 60/1/2 77/1/2
f 76/2/2 59/2/2 77/2/2
f 60/2/2 61/2/2 78/2/2
f 77/1/2 60/1/2 78/1/2
f 61/1/2 62/1/2 79/1/2
f 78/2/2 61/2/2 79/2/2
f 62/2/2 63/2/2 80/2/2
f 79/1/2 62/1/2 80/1/2
f 64/2/2 65/2/2 81/2/2
f 65/1/2 66/1/2 81/1/2
f 66/2/2 67/2/2 82/2/2
f 81/1/2 66/1/2 82/1/2
f 67/1/2 68/1/2 83/1/2
f 82/2/2 67/2/2 83/2/2
f 68/2/2 69/2/2 84/2/2
f 83/1/2 68/1/2 84/1/2
f 69/1/2 70/1/2 85/1/2
f 84/2/2 69/2/2 85/2/2
f 70/2/2 71/2/2 86/2/2
f 85/1/2 70/1/2 86/1/2
f 71/1/2 72/1/2 87/1/2
f 86/2/2 71/2/2 87/2/2
f 87/1/2 72/1/2 88/1/2
f 73/5/2 74/5/2 89/5/2
f 74/5/2 75/5/2 89/5/2
f 75/5/2 76/5/2 89/5/2
f 76/5/2 77/5/2 89/5/2
f 77/5/2 78/5/2 89/5/2
f 78/5/2 79/5/2 89/5/2
f 79/5/2 80/5/2 89/5/2
f 89/5/2 80/5/2 90/5/2
f 80/2/2 63/2/2 91/2/2
f 90/5/2 80/5/2 91/5/2
f 63/1/2 64/1/2 92/1/2
f 91/2/2 63/2/2 92/2/2
f 64/2/2 81/2/2 93/2/2
f 92/1/2 64/1/2 93/1/2
f 85/5/2 86/5/2 94/5/2
f 93/2/2 81/2/2 94/2/2
f 87/5/2 88/5/2 94/5/2
f 86/5/2 87/5/2 94/5/2
f 84/5/2 85/5/2 94/5/2
f 81/5/2 82/5/2 94/5/2
f 83/5/2 84/5/2 94/5/2
f 82/5/2 83/5/2 94/5/2
f 94/5/2 88/5/2 95/5/2
f 95/5/2 88/5/2 96/5/2
f 91/3/2 92/3/2 97/3/2
f 90/3/2 91/3/2 97/3/2
f 97/3/2 92/3/2 98/3/2
f 92/2/2 93/2/2 99/2/2
f 98/3/2 92/3/2 99/3/2
f 94/3/2 95/3/2 100/3/2
f 99/2/2 93/2/2 100/2/2
f 93/3/2 94/3/2 100/3/2
f 100/3/2 95/3/2 101/3/2
f 101/3/2 95/3/2 102/3/2
f 98/3/2 99/3/2 103/3/2
f 100/3/2 101/3/2 103/3/2
f 99/3/2 100/3/2 103/3/2
f 103/3/2 101/3/2 104/3/2
f 104/3/2 101/3/2 105/3/2
f 105/3/2 101/3/2 106/3/2
f 104/4/2 105/4/2 107/4/2
f 107/4/2 105/4/2 108/4/2
f 112/1/3 110/1/3 109/1/3
f 113/5/3 111/5/3 110/5/3
f 113/1/3 110/1/3 112/1/3
f 114/5/3 111/5/3 113/5/3
f 117/3/3 116/3/3 115/3/3
f 118/3/3 116/3/3 117/3/3
f 121/3/3 120/3/3 119/3/3
f 122/3/3 120/3/3 121/3/3
f 125/4/3 124/4/3 123/4/3
f 126/4/3 124/4/3 125/4/3
f 127/4/4 128/4/4 129/4/4
f 129/4/4 128/4/4 130/4/4
f 131/3/4 132/3/4 133/3/4
f 133/3/4 132/3/4 134/3/4
f 135/3/4 136/3/4 137/3/4
f 137/3/4 136/3/4 138/3/4
f 139/1/4 140/1/4 142/1/4
f 140/5/4 141/5/4 143/5/4
f 142/1/4 140/1/4 143/1/4
f 143/5/4 141/5/4 144/5/4
f 147/1/5 146/1/5 145/1/5
f 148/1/5 146/1/5 147/1/5
f 149/2/5 148/2/5 147/2/5
f 150/2/5 148/2/5 149/2/5
f 151/1/5 150/1/5 149/1/5
f 152/1/5 150/1/5 151/1/5
f 153/2/5 152/2/5 151/2/5
f 154/2/5 152/2/5 153/2/5
f 155/1/5 154/1/5 153/1/5
f 156/1/5 154/1/5 155/1/5
f 157/2/5 156/2/5 155/2/5
f 158/2/5 156/2/5 157/2/5
f 159/1/5 158/1/5 157/1/5
f 160/1/5 158/1/5 159/1/5
f 161/2/5 160/2/5 159/2/5
f 162/2/5 160/2/5 161/2/5
f 163/1/5 162/1/5 161/1/5
f 164/1/5 162/1/5 163/1/5
f 165/2/5 164/2/5 163/2/5
f 166/2/5 164/2/5 165/2/5
f 167/1/5 166/1/5 165/1/5
f 168/1/5 166/1/5 167/1/5
f 169/2/5 168/2/5 167/2/5
f 170/2/5 168/2/5 169/2/5
f 171/1/5 170/1/5 169/1/5
f 172/1/5 170/1/5 171/1/5
f 173/2/5 172/2/5 171/2/5
f 174/2/5 172/2/5 173/2/5
f 175/1/5 174/1/5 173/1/5
f 176/1/5 174/1/5 175/1/5
f 177/2/5 176/2/5 175/2/5
f 178/2/5 176/2/5 177/2/5
f 179/1/5 178/1/5 177/1/5
f 180/1/5 178/1/5 179/1/5
f 181/5/6 182/5/6 183/5/6
f 183/5/6 182/5/6 184/5/6
f 185/5/6 186/5/6 187/5/6
f 187/5/6 186/5/6 188/5/6
f 189/3/6 190/3/6 191/3/6
f 191/3/6 190/3/6 192/3/6
f 193/3/6 194/3/6 195/3/6
f 195/3/6 194/3/6 196/3/6
f 197/3/6 198/3/6 199/3/6
f 199/3/6 198/3/6 200/3/6
f 201/3/6 202/3/6 203/3/6
f 203/3/6 202/3/6 204/3/6
f 205/4/6 206/4/6 207/4/6
f 207/4/6 206/4/6 208/4/6
