# MagicaVoxel @ Ephtracy

# group
o 

# material
mtllib yogurt.mtl
usemtl palette

# normals
vn -1 0 0
vn 1 0 0
vn 0 0 1
vn 0 0 -1
vn 0 -1 0
vn 0 1 0

# texcoords
vt 0.798828 0.5
vt 0.958984 0.5

# verts
v 0 2.6 -0.1
v 0 2.6 -0.7
v 0 2.7 -0.1
v 0 2.7 -0.7
v 0.1 2 -0.2
v 0.1 2 -0.6
v 0.1 2.1 -0.1
v 0.1 2.1 -0.2
v 0.1 2.1 -0.6
v 0.1 2.1 -0.7
v 0.1 2.2 -0.2
v 0.1 2.2 -0.6
v 0.1 2.3 -0.1
v 0.1 2.3 -0.2
v 0.1 2.3 -0.6
v 0.1 2.3 -0.7
v 0.1 2.4 -0.1
v 0.1 2.4 -0.7
v 0.1 2.6 0
v 0.1 2.6 -0.1
v 0.1 2.6 -0.7
v 0.1 2.6 -0.8
v 0.1 2.7 0
v 0.1 2.7 -0.1
v 0.1 2.7 -0.7
v 0.1 2.7 -0.8
v 0.2 2 -0.1
v 0.2 2 -0.2
v 0.2 2 -0.6
v 0.2 2 -0.7
v 0.2 2.1 -0.1
v 0.2 2.1 -0.2
v 0.2 2.1 -0.6
v 0.2 2.1 -0.7
v 0.6 2.2 -0.2
v 0.6 2.2 -0.6
v 0.6 2.4 -0.2
v 0.6 2.4 -0.6
v 0.6 2.6 -0.2
v 0.6 2.6 -0.6
v 0.6 2.7 -0.2
v 0.6 2.7 -0.6
v 0.2 2.2 -0.2
v 0.2 2.2 -0.6
v 0.2 2.4 -0.2
v 0.2 2.4 -0.6
v 0.2 2.6 -0.2
v 0.2 2.6 -0.6
v 0.2 2.7 -0.2
v 0.2 2.7 -0.6
v 0.6 2 -0.1
v 0.6 2 -0.2
v 0.6 2 -0.6
v 0.6 2 -0.7
v 0.6 2.1 -0.1
v 0.6 2.1 -0.2
v 0.6 2.1 -0.6
v 0.6 2.1 -0.7
v 0.7 2 -0.2
v 0.7 2 -0.6
v 0.7 2.1 -0.1
v 0.7 2.1 -0.2
v 0.7 2.1 -0.6
v 0.7 2.1 -0.7
v 0.7 2.2 -0.2
v 0.7 2.2 -0.6
v 0.7 2.3 -0.1
v 0.7 2.3 -0.2
v 0.7 2.3 -0.6
v 0.7 2.3 -0.7
v 0.7 2.4 -0.1
v 0.7 2.4 -0.7
v 0.7 2.6 0
v 0.7 2.6 -0.1
v 0.7 2.6 -0.7
v 0.7 2.6 -0.8
v 0.7 2.7 0
v 0.7 2.7 -0.1
v 0.7 2.7 -0.7
v 0.7 2.7 -0.8
v 0.8 2.6 -0.1
v 0.8 2.6 -0.7
v 0.8 2.7 -0.1
v 0.8 2.7 -0.7
v 0.1 2.6 0
v 0.1 2.7 0
v 0.7 2.6 0
v 0.7 2.7 0
v 0 2.6 -0.1
v 0 2.7 -0.1
v 0.1 2.1 -0.1
v 0.1 2.3 -0.1
v 0.1 2.4 -0.1
v 0.1 2.6 -0.1
v 0.1 2.7 -0.1
v 0.2 2 -0.1
v 0.2 2.1 -0.1
v 0.2 2.2 -0.1
v 0.2 2.3 -0.1
v 0.6 2 -0.1
v 0.6 2.1 -0.1
v 0.6 2.2 -0.1
v 0.6 2.3 -0.1
v 0.7 2.1 -0.1
v 0.7 2.3 -0.1
v 0.7 2.4 -0.1
v 0.7 2.6 -0.1
v 0.7 2.7 -0.1
v 0.8 2.6 -0.1
v 0.8 2.7 -0.1
v 0.1 2 -0.2
v 0.1 2.1 -0.2
v 0.2 2 -0.2
v 0.2 2.1 -0.2
v 0.6 2 -0.2
v 0.6 2.1 -0.2
v 0.7 2 -0.2
v 0.7 2.1 -0.2
v 0.2 2.2 -0.6
v 0.2 2.4 -0.6
v 0.2 2.6 -0.6
v 0.2 2.7 -0.6
v 0.6 2.2 -0.6
v 0.6 2.4 -0.6
v 0.6 2.6 -0.6
v 0.6 2.7 -0.6
v 0.2 2.2 -0.2
v 0.2 2.4 -0.2
v 0.2 2.6 -0.2
v 0.2 2.7 -0.2
v 0.6 2.2 -0.2
v 0.6 2.4 -0.2
v 0.6 2.6 -0.2
v 0.6 2.7 -0.2
v 0.1 2 -0.6
v 0.1 2.1 -0.6
v 0.2 2 -0.6
v 0.2 2.1 -0.6
v 0.6 2 -0.6
v 0.6 2.1 -0.6
v 0.7 2 -0.6
v 0.7 2.1 -0.6
v 0 2.6 -0.7
v 0 2.7 -0.7
v 0.1 2.1 -0.7
v 0.1 2.3 -0.7
v 0.1 2.4 -0.7
v 0.1 2.6 -0.7
v 0.1 2.7 -0.7
v 0.2 2 -0.7
v 0.2 2.1 -0.7
v 0.2 2.2 -0.7
v 0.2 2.3 -0.7
v 0.6 2 -0.7
v 0.6 2.1 -0.7
v 0.6 2.2 -0.7
v 0.6 2.3 -0.7
v 0.7 2.1 -0.7
v 0.7 2.3 -0.7
v 0.7 2.4 -0.7
v 0.7 2.6 -0.7
v 0.7 2.7 -0.7
v 0.8 2.6 -0.7
v 0.8 2.7 -0.7
v 0.1 2.6 -0.8
v 0.1 2.7 -0.8
v 0.7 2.6 -0.8
v 0.7 2.7 -0.8
v 0.2 2 -0.1
v 0.6 2 -0.1
v 0.1 2 -0.2
v 0.2 2 -0.2
v 0.6 2 -0.2
v 0.7 2 -0.2
v 0.1 2 -0.6
v 0.2 2 -0.6
v 0.6 2 -0.6
v 0.7 2 -0.6
v 0.2 2 -0.7
v 0.6 2 -0.7
v 0.1 2.1 -0.1
v 0.2 2.1 -0.1
v 0.6 2.1 -0.1
v 0.7 2.1 -0.1
v 0.1 2.1 -0.2
v 0.2 2.1 -0.2
v 0.6 2.1 -0.2
v 0.7 2.1 -0.2
v 0.1 2.1 -0.6
v 0.2 2.1 -0.6
v 0.6 2.1 -0.6
v 0.7 2.1 -0.6
v 0.1 2.1 -0.7
v 0.2 2.1 -0.7
v 0.6 2.1 -0.7
v 0.7 2.1 -0.7
v 0.1 2.6 0
v 0.7 2.6 0
v 0 2.6 -0.1
v 0.1 2.6 -0.1
v 0.7 2.6 -0.1
v 0.8 2.6 -0.1
v 0 2.6 -0.7
v 0.1 2.6 -0.7
v 0.7 2.6 -0.7
v 0.8 2.6 -0.7
v 0.1 2.6 -0.8
v 0.7 2.6 -0.8
v 0.2 2.2 -0.2
v 0.6 2.2 -0.2
v 0.2 2.2 -0.6
v 0.6 2.2 -0.6
v 0.1 2.7 0
v 0.7 2.7 0
v 0 2.7 -0.1
v 0.1 2.7 -0.1
v 0.7 2.7 -0.1
v 0.8 2.7 -0.1
v 0.2 2.7 -0.2
v 0.6 2.7 -0.2
v 0.2 2.7 -0.6
v 0.6 2.7 -0.6
v 0 2.7 -0.7
v 0.1 2.7 -0.7
v 0.7 2.7 -0.7
v 0.8 2.7 -0.7
v 0.1 2.7 -0.8
v 0.7 2.7 -0.8

# faces
f 3/2/1 2/2/1 1/2/1
f 4/2/1 2/2/1 3/2/1
f 8/1/1 6/1/1 5/1/1
f 9/1/1 6/1/1 8/1/1
f 11/1/1 8/1/1 7/1/1
f 11/1/1 10/1/1 9/1/1
f 11/1/1 9/1/1 8/1/1
f 12/1/1 10/1/1 11/1/1
f 13/1/1 11/1/1 7/1/1
f 14/2/1 12/2/1 11/2/1
f 14/1/1 11/1/1 13/1/1
f 15/1/1 10/1/1 12/1/1
f 15/2/1 12/2/1 14/2/1
f 16/1/1 10/1/1 15/1/1
f 17/2/1 14/2/1 13/2/1
f 17/2/1 15/2/1 14/2/1
f 17/2/1 16/2/1 15/2/1
f 18/2/1 16/2/1 17/2/1
f 20/1/1 18/1/1 17/1/1
f 21/1/1 18/1/1 20/1/1
f 23/2/1 20/2/1 19/2/1
f 24/2/1 20/2/1 23/2/1
f 25/2/1 22/2/1 21/2/1
f 26/2/1 22/2/1 25/2/1
f 31/1/1 28/1/1 27/1/1
f 32/1/1 28/1/1 31/1/1
f 33/1/1 30/1/1 29/1/1
f 34/1/1 30/1/1 33/1/1
f 37/2/1 36/2/1 35/2/1
f 38/2/1 36/2/1 37/2/1
f 39/1/1 38/1/1 37/1/1
f 40/1/1 38/1/1 39/1/1
f 41/2/1 40/2/1 39/2/1
f 42/2/1 40/2/1 41/2/1
f 43/2/2 44/2/2 45/2/2
f 45/2/2 44/2/2 46/2/2
f 45/1/2 46/1/2 47/1/2
f 47/1/2 46/1/2 48/1/2
f 47/2/2 48/2/2 49/2/2
f 49/2/2 48/2/2 50/2/2
f 51/1/2 52/1/2 55/1/2
f 55/1/2 52/1/2 56/1/2
f 53/1/2 54/1/2 57/1/2
f 57/1/2 54/1/2 58/1/2
f 59/1/2 60/1/2 62/1/2
f 62/1/2 60/1/2 63/1/2
f 61/1/2 62/1/2 65/1/2
f 63/1/2 64/1/2 65/1/2
f 62/1/2 63/1/2 65/1/2
f 65/1/2 64/1/2 66/1/2
f 61/1/2 65/1/2 67/1/2
f 65/2/2 66/2/2 68/2/2
f 67/1/2 65/1/2 68/1/2
f 66/1/2 64/1/2 69/1/2
f 68/2/2 66/2/2 69/2/2
f 69/1/2 64/1/2 70/1/2
f 67/2/2 68/2/2 71/2/2
f 68/2/2 69/2/2 71/2/2
f 69/2/2 70/2/2 71/2/2
f 71/2/2 70/2/2 72/2/2
f 71/1/2 72/1/2 74/1/2
f 74/1/2 72/1/2 75/1/2
f 73/2/2 74/2/2 77/2/2
f 77/2/2 74/2/2 78/2/2
f 75/2/2 76/2/2 79/2/2
f 79/2/2 76/2/2 80/2/2
f 81/2/2 82/2/2 83/2/2
f 83/2/2 82/2/2 84/2/2
f 87/2/3 86/2/3 85/2/3
f 88/2/3 86/2/3 87/2/3
f 94/2/3 90/2/3 89/2/3
f 95/2/3 90/2/3 94/2/3
f 97/1/3 92/1/3 91/1/3
f 98/1/3 92/1/3 97/1/3
f 99/2/3 93/2/3 92/2/3
f 99/1/3 92/1/3 98/1/3
f 100/1/3 98/1/3 97/1/3
f 100/1/3 97/1/3 96/1/3
f 101/1/3 98/1/3 100/1/3
f 102/2/3 99/2/3 98/2/3
f 102/1/3 98/1/3 101/1/3
f 103/2/3 93/2/3 99/2/3
f 103/2/3 99/2/3 102/2/3
f 104/1/3 102/1/3 101/1/3
f 104/1/3 103/1/3 102/1/3
f 105/2/3 93/2/3 103/2/3
f 105/1/3 103/1/3 104/1/3
f 106/1/3 94/1/3 93/1/3
f 106/2/3 93/2/3 105/2/3
f 107/1/3 94/1/3 106/1/3
f 109/2/3 108/2/3 107/2/3
f 110/2/3 108/2/3 109/2/3
f 113/1/3 112/1/3 111/1/3
f 114/1/3 112/1/3 113/1/3
f 117/1/3 116/1/3 115/1/3
f 118/1/3 116/1/3 117/1/3
f 123/2/3 120/2/3 119/2/3
f 124/1/3 121/1/3 120/1/3
f 124/2/3 120/2/3 123/2/3
f 125/2/3 122/2/3 121/2/3
f 125/1/3 121/1/3 124/1/3
f 126/2/3 122/2/3 125/2/3
f 127/2/4 128/2/4 131/2/4
f 128/1/4 129/1/4 132/1/4
f 131/2/4 128/2/4 132/2/4
f 129/2/4 130/2/4 133/2/4
f 132/1/4 129/1/4 133/1/4
f 133/2/4 130/2/4 134/2/4
f 135/1/4 136/1/4 137/1/4
f 137/1/4 136/1/4 138/1/4
f 139/1/4 140/1/4 141/1/4
f 141/1/4 140/1/4 142/1/4
f 143/2/4 144/2/4 148/2/4
f 148/2/4 144/2/4 149/2/4
f 145/1/4 146/1/4 151/1/4
f 151/1/4 146/1/4 152/1/4
f 146/2/4 147/2/4 153/2/4
f 152/1/4 146/1/4 153/1/4
f 151/1/4 152/1/4 154/1/4
f 150/1/4 151/1/4 154/1/4
f 154/1/4 152/1/4 155/1/4
f 152/2/4 153/2/4 156/2/4
f 155/1/4 152/1/4 156/1/4
f 153/2/4 147/2/4 157/2/4
f 156/2/4 153/2/4 157/2/4
f 155/1/4 156/1/4 158/1/4
f 156/1/4 157/1/4 158/1/4
f 157/2/4 147/2/4 159/2/4
f 158/1/4 157/1/4 159/1/4
f 147/1/4 148/1/4 160/1/4
f 159/2/4 147/2/4 160/2/4
f 160/1/4 148/1/4 161/1/4
f 161/2/4 162/2/4 163/2/4
f 163/2/4 162/2/4 164/2/4
f 165/2/4 166/2/4 167/2/4
f 167/2/4 166/2/4 168/2/4
f 172/1/5 170/1/5 169/1/5
f 173/1/5 170/1/5 172/1/5
f 175/1/5 172/1/5 171/1/5
f 176/2/5 173/2/5 172/2/5
f 176/1/5 172/1/5 175/1/5
f 177/1/5 174/1/5 173/1/5
f 177/2/5 173/2/5 176/2/5
f 178/1/5 174/1/5 177/1/5
f 179/1/5 177/1/5 176/1/5
f 180/1/5 177/1/5 179/1/5
f 185/1/5 182/1/5 181/1/5
f 186/1/5 182/1/5 185/1/5
f 187/1/5 184/1/5 183/1/5
f 188/1/5 184/1/5 187/1/5
f 193/1/5 190/1/5 189/1/5
f 194/1/5 190/1/5 193/1/5
f 195/1/5 192/1/5 191/1/5
f 196/1/5 192/1/5 195/1/5
f 200/2/5 198/2/5 197/2/5
f 201/2/5 198/2/5 200/2/5
f 203/2/5 200/2/5 199/2/5
f 204/2/5 200/2/5 203/2/5
f 205/2/5 202/2/5 201/2/5
f 206/2/5 202/2/5 205/2/5
f 207/2/5 205/2/5 204/2/5
f 208/2/5 205/2/5 207/2/5
f 209/2/6 210/2/6 211/2/6
f 211/2/6 210/2/6 212/2/6
f 213/2/6 214/2/6 216/2/6
f 216/2/6 214/2/6 217/2/6
f 215/2/6 216/2/6 219/2/6
f 217/2/6 218/2/6 219/2/6
f 216/2/6 217/2/6 219/2/6
f 219/2/6 218/2/6 220/2/6
f 215/2/6 219/2/6 221/2/6
f 220/2/6 218/2/6 222/2/6
f 215/2/6 221/2/6 223/2/6
f 221/2/6 222/2/6 223/2/6
f 223/2/6 222/2/6 224/2/6
f 222/2/6 218/2/6 225/2/6
f 224/2/6 222/2/6 225/2/6
f 225/2/6 218/2/6 226/2/6
f 224/2/6 225/2/6 227/2/6
f 227/2/6 225/2/6 228/2/6
