# MagicaVoxel @ Ephtracy

# group
o 

# material
mtllib can.mtl
usemtl palette

# normals
vn -1 0 0
vn 1 0 0
vn 0 0 1
vn 0 0 -1
vn 0 -1 0
vn 0 1 0

# texcoords
vt 0.978516 0.5
vt 0.982422 0.5

# verts
v -1.7 0 1.4
v -1.7 0 1.2
v -1.7 0.1 1.4
v -1.7 0.1 1.2
v -1.7 0.2 1.4
v -1.7 0.2 1.2
v -1.7 0.3 1.4
v -1.7 0.3 1.2
v -1.7 0.4 1.7
v -1.7 0.4 1.5
v -1.7 0.4 1.4
v -1.7 0.4 1.2
v -1.7 0.5 1.7
v -1.7 0.5 1.5
v -1.7 0.5 1.4
v -1.7 0.5 1.2
v -1.6 0 1.5
v -1.6 0 1.4
v -1.6 0 1.2
v -1.6 0 1.1
v -1.6 0.1 1.5
v -1.6 0.1 1.4
v -1.6 0.1 1.2
v -1.6 0.1 1.1
v -1.6 0.2 1.5
v -1.6 0.2 1.4
v -1.6 0.2 1.2
v -1.6 0.2 1.1
v -1.6 0.3 1.5
v -1.6 0.3 1.4
v -1.6 0.3 1.2
v -1.6 0.3 1.1
v -1.6 0.4 1.8
v -1.6 0.4 1.7
v -1.6 0.4 1.5
v -1.6 0.4 1.4
v -1.6 0.4 1.2
v -1.6 0.4 1.1
v -1.6 0.5 1.8
v -1.6 0.5 1.7
v -1.6 0.5 1.5
v -1.6 0.5 1.4
v -1.6 0.5 1.2
v -1.6 0.5 1.1
v -1.4 0.1 1.4
v -1.4 0.1 1.2
v -1.4 0.2 1.4
v -1.4 0.2 1.2
v -1.4 0.3 1.4
v -1.4 0.3 1.2
v -1.4 0.4 1.4
v -1.4 0.4 1.2
v -1.4 0.5 1.4
v -1.4 0.5 1.2
v -1.6 0.1 1.4
v -1.6 0.1 1.2
v -1.6 0.2 1.4
v -1.6 0.2 1.2
v -1.6 0.3 1.4
v -1.6 0.3 1.2
v -1.6 0.4 1.4
v -1.6 0.4 1.2
v -1.6 0.5 1.4
v -1.6 0.5 1.2
v -1.4 0 1.5
v -1.4 0 1.4
v -1.4 0 1.2
v -1.4 0 1.1
v -1.4 0.1 1.5
v -1.4 0.1 1.4
v -1.4 0.1 1.2
v -1.4 0.1 1.1
v -1.4 0.2 1.5
v -1.4 0.2 1.4
v -1.4 0.2 1.2
v -1.4 0.2 1.1
v -1.4 0.3 1.5
v -1.4 0.3 1.4
v -1.4 0.3 1.2
v -1.4 0.3 1.1
v -1.4 0.4 1.8
v -1.4 0.4 1.7
v -1.4 0.4 1.5
v -1.4 0.4 1.4
v -1.4 0.4 1.2
v -1.4 0.4 1.1
v -1.4 0.5 1.8
v -1.4 0.5 1.7
v -1.4 0.5 1.5
v -1.4 0.5 1.4
v -1.4 0.5 1.2
v -1.4 0.5 1.1
v -1.3 0 1.4
v -1.3 0 1.2
v -1.3 0.1 1.4
v -1.3 0.1 1.2
v -1.3 0.2 1.4
v -1.3 0.2 1.2
v -1.3 0.3 1.4
v -1.3 0.3 1.2
v -1.3 0.4 1.7
v -1.3 0.4 1.5
v -1.3 0.4 1.4
v -1.3 0.4 1.2
v -1.3 0.5 1.7
v -1.3 0.5 1.5
v -1.3 0.5 1.4
v -1.3 0.5 1.2
v -1.6 0.4 1.8
v -1.6 0.5 1.8
v -1.4 0.4 1.8
v -1.4 0.5 1.8
v -1.7 0.4 1.7
v -1.7 0.5 1.7
v -1.6 0.4 1.7
v -1.6 0.5 1.7
v -1.4 0.4 1.7
v -1.4 0.5 1.7
v -1.3 0.4 1.7
v -1.3 0.5 1.7
v -1.6 0 1.5
v -1.6 0.1 1.5
v -1.6 0.2 1.5
v -1.6 0.3 1.5
v -1.6 0.4 1.5
v -1.4 0 1.5
v -1.4 0.1 1.5
v -1.4 0.2 1.5
v -1.4 0.3 1.5
v -1.4 0.4 1.5
v -1.7 0 1.4
v -1.7 0.1 1.4
v -1.7 0.2 1.4
v -1.7 0.3 1.4
v -1.7 0.4 1.4
v -1.7 0.5 1.4
v -1.6 0 1.4
v -1.6 0.1 1.4
v -1.6 0.2 1.4
v -1.6 0.3 1.4
v -1.6 0.4 1.4
v -1.6 0.5 1.4
v -1.4 0 1.4
v -1.4 0.1 1.4
v -1.4 0.2 1.4
v -1.4 0.3 1.4
v -1.4 0.4 1.4
v -1.4 0.5 1.4
v -1.3 0 1.4
v -1.3 0.1 1.4
v -1.3 0.2 1.4
v -1.3 0.3 1.4
v -1.3 0.4 1.4
v -1.3 0.5 1.4
v -1.6 0.1 1.2
v -1.6 0.2 1.2
v -1.6 0.3 1.2
v -1.6 0.4 1.2
v -1.6 0.5 1.2
v -1.4 0.1 1.2
v -1.4 0.2 1.2
v -1.4 0.3 1.2
v -1.4 0.4 1.2
v -1.4 0.5 1.2
v -1.7 0.4 1.5
v -1.7 0.5 1.5
v -1.6 0.4 1.5
v -1.6 0.5 1.5
v -1.4 0.4 1.5
v -1.4 0.5 1.5
v -1.3 0.4 1.5
v -1.3 0.5 1.5
v -1.6 0.1 1.4
v -1.6 0.2 1.4
v -1.6 0.3 1.4
v -1.6 0.4 1.4
v -1.6 0.5 1.4
v -1.4 0.1 1.4
v -1.4 0.2 1.4
v -1.4 0.3 1.4
v -1.4 0.4 1.4
v -1.4 0.5 1.4
v -1.7 0 1.2
v -1.7 0.1 1.2
v -1.7 0.2 1.2
v -1.7 0.3 1.2
v -1.7 0.4 1.2
v -1.7 0.5 1.2
v -1.6 0 1.2
v -1.6 0.1 1.2
v -1.6 0.2 1.2
v -1.6 0.3 1.2
v -1.6 0.4 1.2
v -1.6 0.5 1.2
v -1.4 0 1.2
v -1.4 0.1 1.2
v -1.4 0.2 1.2
v -1.4 0.3 1.2
v -1.4 0.4 1.2
v -1.4 0.5 1.2
v -1.3 0 1.2
v -1.3 0.1 1.2
v -1.3 0.2 1.2
v -1.3 0.3 1.2
v -1.3 0.4 1.2
v -1.3 0.5 1.2
v -1.6 0 1.1
v -1.6 0.1 1.1
v -1.6 0.2 1.1
v -1.6 0.3 1.1
v -1.6 0.4 1.1
v -1.6 0.5 1.1
v -1.4 0 1.1
v -1.4 0.1 1.1
v -1.4 0.2 1.1
v -1.4 0.3 1.1
v -1.4 0.4 1.1
v -1.4 0.5 1.1
v -1.6 0 1.5
v -1.4 0 1.5
v -1.7 0 1.4
v -1.6 0 1.4
v -1.4 0 1.4
v -1.3 0 1.4
v -1.7 0 1.2
v -1.6 0 1.2
v -1.4 0 1.2
v -1.3 0 1.2
v -1.6 0 1.1
v -1.4 0 1.1
v -1.6 0.4 1.8
v -1.4 0.4 1.8
v -1.7 0.4 1.7
v -1.6 0.4 1.7
v -1.4 0.4 1.7
v -1.3 0.4 1.7
v -1.7 0.4 1.5
v -1.6 0.4 1.5
v -1.4 0.4 1.5
v -1.3 0.4 1.5
v -1.6 0.1 1.4
v -1.4 0.1 1.4
v -1.6 0.1 1.2
v -1.4 0.1 1.2
v -1.6 0.5 1.8
v -1.4 0.5 1.8
v -1.7 0.5 1.7
v -1.6 0.5 1.7
v -1.4 0.5 1.7
v -1.3 0.5 1.7
v -1.7 0.5 1.5
v -1.6 0.5 1.5
v -1.4 0.5 1.5
v -1.3 0.5 1.5
v -1.7 0.5 1.4
v -1.6 0.5 1.4
v -1.4 0.5 1.4
v -1.3 0.5 1.4
v -1.7 0.5 1.2
v -1.6 0.5 1.2
v -1.4 0.5 1.2
v -1.3 0.5 1.2
v -1.6 0.5 1.1
v -1.4 0.5 1.1

# faces
f 3/1/1 2/1/1 1/1/1
f 4/1/1 2/1/1 3/1/1
f 5/2/1 4/2/1 3/2/1
f 6/2/1 4/2/1 5/2/1
f 7/1/1 6/1/1 5/1/1
f 8/1/1 6/1/1 7/1/1
f 11/2/1 8/2/1 7/2/1
f 12/2/1 8/2/1 11/2/1
f 13/1/1 10/1/1 9/1/1
f 14/1/1 10/1/1 13/1/1
f 15/1/1 12/1/1 11/1/1
f 16/1/1 12/1/1 15/1/1
f 21/1/1 18/1/1 17/1/1
f 22/1/1 18/1/1 21/1/1
f 23/1/1 20/1/1 19/1/1
f 24/1/1 20/1/1 23/1/1
f 25/2/1 22/2/1 21/2/1
f 26/2/1 22/2/1 25/2/1
f 27/2/1 24/2/1 23/2/1
f 28/2/1 24/2/1 27/2/1
f 29/1/1 26/1/1 25/1/1
f 30/1/1 26/1/1 29/1/1
f 31/1/1 28/1/1 27/1/1
f 32/1/1 28/1/1 31/1/1
f 35/2/1 30/2/1 29/2/1
f 36/2/1 30/2/1 35/2/1
f 37/2/1 32/2/1 31/2/1
f 38/2/1 32/2/1 37/2/1
f 39/1/1 34/1/1 33/1/1
f 40/1/1 34/1/1 39/1/1
f 41/1/1 36/1/1 35/1/1
f 42/1/1 36/1/1 41/1/1
f 43/1/1 38/1/1 37/1/1
f 44/1/1 38/1/1 43/1/1
f 47/2/1 46/2/1 45/2/1
f 48/2/1 46/2/1 47/2/1
f 49/1/1 48/1/1 47/1/1
f 50/1/1 48/1/1 49/1/1
f 51/2/1 50/2/1 49/2/1
f 52/2/1 50/2/1 51/2/1
f 53/1/1 52/1/1 51/1/1
f 54/1/1 52/1/1 53/1/1
f 55/2/2 56/2/2 57/2/2
f 57/2/2 56/2/2 58/2/2
f 57/1/2 58/1/2 59/1/2
f 59/1/2 58/1/2 60/1/2
f 59/2/2 60/2/2 61/2/2
f 61/2/2 60/2/2 62/2/2
f 61/1/2 62/1/2 63/1/2
f 63/1/2 62/1/2 64/1/2
f 65/1/2 66/1/2 69/1/2
f 69/1/2 66/1/2 70/1/2
f 67/1/2 68/1/2 71/1/2
f 71/1/2 68/1/2 72/1/2
f 69/2/2 70/2/2 73/2/2
f 73/2/2 70/2/2 74/2/2
f 71/2/2 72/2/2 75/2/2
f 75/2/2 72/2/2 76/2/2
f 73/1/2 74/1/2 77/1/2
f 77/1/2 74/1/2 78/1/2
f 75/1/2 76/1/2 79/1/2
f 79/1/2 76/1/2 80/1/2
f 77/2/2 78/2/2 83/2/2
f 83/2/2 78/2/2 84/2/2
f 79/2/2 80/2/2 85/2/2
f 85/2/2 80/2/2 86/2/2
f 81/1/2 82/1/2 87/1/2
f 87/1/2 82/1/2 88/1/2
f 83/1/2 84/1/2 89/1/2
f 89/1/2 84/1/2 90/1/2
f 85/1/2 86/1/2 91/1/2
f 91/1/2 86/1/2 92/1/2
f 93/1/2 94/1/2 95/1/2
f 95/1/2 94/1/2 96/1/2
f 95/2/2 96/2/2 97/2/2
f 97/2/2 96/2/2 98/2/2
f 97/1/2 98/1/2 99/1/2
f 99/1/2 98/1/2 100/1/2
f 99/2/2 100/2/2 103/2/2
f 103/2/2 100/2/2 104/2/2
f 101/1/2 102/1/2 105/1/2
f 105/1/2 102/1/2 106/1/2
f 103/1/2 104/1/2 107/1/2
f 107/1/2 104/1/2 108/1/2
f 111/1/3 110/1/3 109/1/3
f 112/1/3 110/1/3 111/1/3
f 115/1/3 114/1/3 113/1/3
f 116/1/3 114/1/3 115/1/3
f 119/1/3 118/1/3 117/1/3
f 120/1/3 118/1/3 119/1/3
f 126/1/3 122/1/3 121/1/3
f 127/2/3 123/2/3 122/2/3
f 127/1/3 122/1/3 126/1/3
f 128/1/3 124/1/3 123/1/3
f 128/2/3 123/2/3 127/2/3
f 129/2/3 125/2/3 124/2/3
f 129/1/3 124/1/3 128/1/3
f 130/2/3 125/2/3 129/2/3
f 137/1/3 132/1/3 131/1/3
f 138/2/3 133/2/3 132/2/3
f 138/1/3 132/1/3 137/1/3
f 139/1/3 134/1/3 133/1/3
f 139/2/3 133/2/3 138/2/3
f 140/2/3 135/2/3 134/2/3
f 140/1/3 134/1/3 139/1/3
f 141/1/3 136/1/3 135/1/3
f 141/2/3 135/2/3 140/2/3
f 142/1/3 136/1/3 141/1/3
f 149/1/3 144/1/3 143/1/3
f 150/2/3 145/2/3 144/2/3
f 150/1/3 144/1/3 149/1/3
f 151/1/3 146/1/3 145/1/3
f 151/2/3 145/2/3 150/2/3
f 152/2/3 147/2/3 146/2/3
f 152/1/3 146/1/3 151/1/3
f 153/1/3 148/1/3 147/1/3
f 153/2/3 147/2/3 152/2/3
f 154/1/3 148/1/3 153/1/3
f 160/2/3 156/2/3 155/2/3
f 161/1/3 157/1/3 156/1/3
f 161/2/3 156/2/3 160/2/3
f 162/2/3 158/2/3 157/2/3
f 162/1/3 157/1/3 161/1/3
f 163/1/3 159/1/3 158/1/3
f 163/2/3 158/2/3 162/2/3
f 164/1/3 159/1/3 163/1/3
f 165/1/4 166/1/4 167/1/4
f 167/1/4 166/1/4 168/1/4
f 169/1/4 170/1/4 171/1/4
f 171/1/4 170/1/4 172/1/4
f 173/2/4 174/2/4 178/2/4
f 174/1/4 175/1/4 179/1/4
f 178/2/4 174/2/4 179/2/4
f 175/2/4 176/2/4 180/2/4
f 179/1/4 175/1/4 180/1/4
f 176/1/4 177/1/4 181/1/4
f 180/2/4 176/2/4 181/2/4
f 181/1/4 177/1/4 182/1/4
f 183/1/4 184/1/4 189/1/4
f 184/2/4 185/2/4 190/2/4
f 189/1/4 184/1/4 190/1/4
f 185/1/4 186/1/4 191/1/4
f 190/2/4 185/2/4 191/2/4
f 186/2/4 187/2/4 192/2/4
f 191/1/4 186/1/4 192/1/4
f 187/1/4 188/1/4 193/1/4
f 192/2/4 187/2/4 193/2/4
f 193/1/4 188/1/4 194/1/4
f 195/1/4 196/1/4 201/1/4
f 196/2/4 197/2/4 202/2/4
f 201/1/4 196/1/4 202/1/4
f 197/1/4 198/1/4 203/1/4
f 202/2/4 197/2/4 203/2/4
f 198/2/4 199/2/4 204/2/4
f 203/1/4 198/1/4 204/1/4
f 199/1/4 200/1/4 205/1/4
f 204/2/4 199/2/4 205/2/4
f 205/1/4 200/1/4 206/1/4
f 207/1/4 208/1/4 213/1/4
f 208/2/4 209/2/4 214/2/4
f 213/1/4 208/1/4 214/1/4
f 209/1/4 210/1/4 215/1/4
f 214/2/4 209/2/4 215/2/4
f 210/2/4 211/2/4 216/2/4
f 215/1/4 210/1/4 216/1/4
f 211/1/4 212/1/4 217/1/4
f 216/2/4 211/2/4 217/2/4
f 217/1/4 212/1/4 218/1/4
f 222/1/5 220/1/5 219/1/5
f 223/1/5 220/1/5 222/1/5
f 225/1/5 222/1/5 221/1/5
f 225/1/5 224/1/5 223/1/5
f 225/1/5 223/1/5 222/1/5
f 226/1/5 224/1/5 225/1/5
f 227/1/5 224/1/5 226/1/5
f 228/1/5 224/1/5 227/1/5
f 229/1/5 227/1/5 226/1/5
f 230/1/5 227/1/5 229/1/5
f 234/1/5 232/1/5 231/1/5
f 235/1/5 232/1/5 234/1/5
f 237/1/5 234/1/5 233/1/5
f 237/1/5 236/1/5 235/1/5
f 237/1/5 235/1/5 234/1/5
f 238/1/5 236/1/5 237/1/5
f 239/1/5 236/1/5 238/1/5
f 240/1/5 236/1/5 239/1/5
f 241/1/6 242/1/6 243/1/6
f 243/1/6 242/1/6 244/1/6
f 245/1/6 246/1/6 248/1/6
f 248/1/6 246/1/6 249/1/6
f 247/1/6 248/1/6 251/1/6
f 249/1/6 250/1/6 251/1/6
f 248/1/6 249/1/6 251/1/6
f 251/1/6 250/1/6 252/1/6
f 252/1/6 250/1/6 253/1/6
f 253/1/6 250/1/6 254/1/6
f 252/1/6 253/1/6 256/1/6
f 256/1/6 253/1/6 257/1/6
f 255/1/6 256/1/6 259/1/6
f 259/1/6 256/1/6 260/1/6
f 257/1/6 258/1/6 261/1/6
f 261/1/6 258/1/6 262/1/6
f 260/1/6 261/1/6 263/1/6
f 263/1/6 261/1/6 264/1/6
