# MagicaVoxel @ Ephtracy

# group
o 

# material
mtllib boxmac.mtl
usemtl palette

# normals
vn -1 0 0
vn 1 0 0
vn 0 0 1
vn 0 0 -1
vn 0 -1 0
vn 0 1 0

# texcoords
vt 0.0410156 0.5
vt 0.845703 0.5
vt 0.958984 0.5

# verts
v 0.2 2.3 -0.4
v 0.2 2.3 -0.6
v 0.2 2.3 -0.7
v 0.2 2.3 -1.2
v 0.2 2.4 -0.6
v 0.2 2.4 -0.7
v 0.2 2.4 -1
v 0.2 2.4 -1.1
v 0.2 2.5 -0.5
v 0.2 2.5 -0.6
v 0.2 2.5 -0.9
v 0.2 2.5 -1
v 0.2 2.5 -1.1
v 0.2 2.6 -0.4
v 0.2 2.6 -0.5
v 0.2 2.6 -0.6
v 0.2 2.6 -0.9
v 0.2 2.6 -1
v 0.2 2.6 -1.2
v 0.3 2.1 -0.4
v 0.3 2.1 -1.2
v 0.3 2.2 -0.3
v 0.3 2.2 -0.4
v 0.3 2.2 -1.2
v 0.3 2.2 -1.3
v 0.3 2.3 -0.4
v 0.3 2.3 -0.6
v 0.3 2.3 -0.7
v 0.3 2.3 -1.2
v 0.3 2.6 -0.4
v 0.3 2.6 -0.5
v 0.3 2.6 -0.6
v 0.3 2.6 -0.9
v 0.3 2.6 -1
v 0.3 2.6 -1.2
v 0.3 2.7 -0.3
v 0.3 2.7 -0.4
v 0.3 2.7 -1.2
v 0.3 2.7 -1.3
v 0.3 2.8 -0.4
v 0.3 2.8 -1.2
v 0.4 2 -0.4
v 0.4 2 -1.2
v 0.4 2.1 -0.3
v 0.4 2.1 -0.4
v 0.4 2.1 -1.2
v 0.4 2.1 -1.3
v 0.4 2.2 -0.3
v 0.4 2.2 -0.4
v 0.4 2.2 -1.2
v 0.4 2.2 -1.3
v 0.4 2.3 -0.2
v 0.4 2.3 -0.3
v 0.4 2.3 -1.3
v 0.4 2.3 -1.4
v 0.4 2.6 -0.2
v 0.4 2.6 -0.3
v 0.4 2.6 -1.3
v 0.4 2.6 -1.4
v 0.4 2.7 -0.3
v 0.4 2.7 -0.4
v 0.4 2.7 -1.2
v 0.4 2.7 -1.3
v 0.4 2.8 -0.3
v 0.4 2.8 -0.4
v 0.4 2.8 -0.5
v 0.4 2.8 -0.7
v 0.4 2.8 -0.9
v 0.4 2.8 -1
v 0.4 2.8 -1.1
v 0.4 2.8 -1.2
v 0.4 2.8 -1.3
v 0.4 2.9 -0.4
v 0.4 2.9 -0.5
v 0.4 2.9 -0.7
v 0.4 2.9 -0.9
v 0.4 2.9 -1
v 0.4 2.9 -1.1
v 0.4 2.9 -1.2
v 1.2 2 -0.4
v 1.2 2 -1.2
v 1.2 2.1 -0.3
v 1.2 2.1 -0.4
v 1.2 2.1 -1.2
v 1.2 2.1 -1.3
v 1.2 2.2 -0.3
v 1.2 2.2 -0.4
v 1.2 2.2 -1.2
v 1.2 2.2 -1.3
v 1.2 2.3 -0.2
v 1.2 2.3 -0.3
v 1.2 2.3 -1.3
v 1.2 2.3 -1.4
v 1.2 2.6 -0.2
v 1.2 2.6 -0.3
v 1.2 2.6 -1.3
v 1.2 2.6 -1.4
v 1.2 2.7 -0.3
v 1.2 2.7 -0.4
v 1.2 2.7 -1.2
v 1.2 2.7 -1.3
v 1.2 2.8 -0.3
v 1.2 2.8 -0.4
v 1.2 2.8 -0.9
v 1.2 2.8 -1.1
v 1.2 2.8 -1.2
v 1.2 2.8 -1.3
v 1.2 2.9 -0.4
v 1.2 2.9 -0.9
v 1.2 2.9 -1.1
v 1.2 2.9 -1.2
v 1.3 2.1 -0.4
v 1.3 2.1 -1.2
v 1.3 2.2 -0.3
v 1.3 2.2 -0.4
v 1.3 2.2 -1.2
v 1.3 2.2 -1.3
v 1.3 2.3 -0.4
v 1.3 2.3 -0.8
v 1.3 2.3 -0.9
v 1.3 2.3 -1.2
v 1.3 2.6 -0.4
v 1.3 2.6 -0.6
v 1.3 2.6 -0.7
v 1.3 2.6 -1.2
v 1.3 2.7 -0.3
v 1.3 2.7 -0.4
v 1.3 2.7 -1.2
v 1.3 2.7 -1.3
v 1.3 2.8 -0.4
v 1.3 2.8 -1.2
v 1.4 2.3 -0.4
v 1.4 2.3 -0.8
v 1.4 2.3 -0.9
v 1.4 2.3 -1.2
v 1.4 2.4 -0.5
v 1.4 2.4 -0.6
v 1.4 2.4 -0.8
v 1.4 2.4 -0.9
v 1.4 2.4 -1
v 1.4 2.4 -1.1
v 1.4 2.5 -0.5
v 1.4 2.5 -0.6
v 1.4 2.5 -0.7
v 1.4 2.5 -1
v 1.4 2.5 -1.1
v 1.4 2.6 -0.4
v 1.4 2.6 -0.6
v 1.4 2.6 -0.7
v 1.4 2.6 -1.2
v 0.4 2.3 -0.2
v 0.4 2.6 -0.2
v 0.6 2.3 -0.2
v 0.6 2.5 -0.2
v 0.7 2.3 -0.2
v 0.7 2.5 -0.2
v 0.7 2.6 -0.2
v 0.8 2.4 -0.2
v 0.8 2.5 -0.2
v 0.8 2.6 -0.2
v 0.9 2.4 -0.2
v 0.9 2.5 -0.2
v 0.9 2.6 -0.2
v 1 2.3 -0.2
v 1 2.5 -0.2
v 1 2.6 -0.2
v 1.1 2.3 -0.2
v 1.1 2.5 -0.2
v 1.2 2.3 -0.2
v 1.2 2.6 -0.2
v 0.3 2.2 -0.3
v 0.3 2.7 -0.3
v 0.4 2.1 -0.3
v 0.4 2.2 -0.3
v 0.4 2.3 -0.3
v 0.4 2.6 -0.3
v 0.4 2.7 -0.3
v 0.4 2.8 -0.3
v 0.6 2.3 -0.3
v 0.7 2.3 -0.3
v 0.7 2.6 -0.3
v 0.8 2.6 -0.3
v 0.9 2.6 -0.3
v 1 2.3 -0.3
v 1 2.6 -0.3
v 1.1 2.3 -0.3
v 1.2 2.1 -0.3
v 1.2 2.2 -0.3
v 1.2 2.3 -0.3
v 1.2 2.6 -0.3
v 1.2 2.7 -0.3
v 1.2 2.8 -0.3
v 1.3 2.2 -0.3
v 1.3 2.7 -0.3
v 0.2 2.3 -0.4
v 0.2 2.6 -0.4
v 0.3 2.1 -0.4
v 0.3 2.2 -0.4
v 0.3 2.3 -0.4
v 0.3 2.6 -0.4
v 0.3 2.7 -0.4
v 0.3 2.8 -0.4
v 0.4 2 -0.4
v 0.4 2.1 -0.4
v 0.4 2.2 -0.4
v 0.4 2.7 -0.4
v 0.4 2.8 -0.4
v 0.4 2.9 -0.4
v 0.6 2.8 -0.4
v 0.6 2.9 -0.4
v 0.7 2.8 -0.4
v 0.7 2.9 -0.4
v 0.8 2.8 -0.4
v 0.8 2.9 -0.4
v 1 2.8 -0.4
v 1 2.9 -0.4
v 1.2 2 -0.4
v 1.2 2.1 -0.4
v 1.2 2.2 -0.4
v 1.2 2.7 -0.4
v 1.2 2.8 -0.4
v 1.2 2.9 -0.4
v 1.3 2.1 -0.4
v 1.3 2.2 -0.4
v 1.3 2.3 -0.4
v 1.3 2.6 -0.4
v 1.3 2.7 -0.4
v 1.3 2.8 -0.4
v 1.4 2.3 -0.4
v 1.4 2.6 -0.4
v 0.2 2.3 -1.2
v 0.2 2.6 -1.2
v 0.3 2.1 -1.2
v 0.3 2.2 -1.2
v 0.3 2.3 -1.2
v 0.3 2.6 -1.2
v 0.3 2.7 -1.2
v 0.3 2.8 -1.2
v 0.4 2 -1.2
v 0.4 2.1 -1.2
v 0.4 2.2 -1.2
v 0.4 2.7 -1.2
v 0.4 2.8 -1.2
v 0.4 2.9 -1.2
v 0.5 2.1 -1.2
v 0.6 2.1 -1.2
v 0.6 2.8 -1.2
v 0.6 2.9 -1.2
v 0.8 2.8 -1.2
v 0.8 2.9 -1.2
v 0.9 2.1 -1.2
v 0.9 2.8 -1.2
v 0.9 2.9 -1.2
v 1 2.1 -1.2
v 1 2.8 -1.2
v 1 2.9 -1.2
v 1.1 2.8 -1.2
v 1.1 2.9 -1.2
v 1.2 2 -1.2
v 1.2 2.1 -1.2
v 1.2 2.2 -1.2
v 1.2 2.7 -1.2
v 1.2 2.8 -1.2
v 1.2 2.9 -1.2
v 1.3 2.1 -1.2
v 1.3 2.2 -1.2
v 1.3 2.3 -1.2
v 1.3 2.6 -1.2
v 1.3 2.7 -1.2
v 1.3 2.8 -1.2
v 1.4 2.3 -1.2
v 1.4 2.6 -1.2
v 0.3 2.2 -1.3
v 0.3 2.7 -1.3
v 0.4 2.1 -1.3
v 0.4 2.2 -1.3
v 0.4 2.3 -1.3
v 0.4 2.6 -1.3
v 0.4 2.7 -1.3
v 0.4 2.8 -1.3
v 0.5 2.1 -1.3
v 0.5 2.3 -1.3
v 0.6 2.1 -1.3
v 0.6 2.3 -1.3
v 0.6 2.6 -1.3
v 0.7 2.6 -1.3
v 0.8 2.6 -1.3
v 0.9 2.1 -1.3
v 0.9 2.3 -1.3
v 0.9 2.6 -1.3
v 1 2.1 -1.3
v 1 2.3 -1.3
v 1.2 2.1 -1.3
v 1.2 2.2 -1.3
v 1.2 2.3 -1.3
v 1.2 2.6 -1.3
v 1.2 2.7 -1.3
v 1.2 2.8 -1.3
v 1.3 2.2 -1.3
v 1.3 2.7 -1.3
v 0.4 2.3 -1.4
v 0.4 2.6 -1.4
v 0.5 2.3 -1.4
v 0.5 2.5 -1.4
v 0.6 2.3 -1.4
v 0.6 2.5 -1.4
v 0.6 2.6 -1.4
v 0.7 2.4 -1.4
v 0.7 2.5 -1.4
v 0.7 2.6 -1.4
v 0.8 2.4 -1.4
v 0.8 2.5 -1.4
v 0.8 2.6 -1.4
v 0.9 2.3 -1.4
v 0.9 2.5 -1.4
v 0.9 2.6 -1.4
v 1 2.3 -1.4
v 1 2.5 -1.4
v 1.2 2.3 -1.4
v 1.2 2.6 -1.4
v 0.4 2 -0.4
v 1.2 2 -0.4
v 0.4 2 -1.2
v 1.2 2 -1.2
v 0.4 2.1 -0.3
v 1.2 2.1 -0.3
v 0.3 2.1 -0.4
v 0.4 2.1 -0.4
v 1.2 2.1 -0.4
v 1.3 2.1 -0.4
v 0.3 2.1 -1.2
v 0.4 2.1 -1.2
v 0.5 2.1 -1.2
v 0.6 2.1 -1.2
v 0.9 2.1 -1.2
v 1 2.1 -1.2
v 1.2 2.1 -1.2
v 1.3 2.1 -1.2
v 0.4 2.1 -1.3
v 0.5 2.1 -1.3
v 0.6 2.1 -1.3
v 0.9 2.1 -1.3
v 1 2.1 -1.3
v 1.2 2.1 -1.3
v 0.3 2.2 -0.3
v 0.4 2.2 -0.3
v 1.2 2.2 -0.3
v 1.3 2.2 -0.3
v 0.3 2.2 -0.4
v 0.4 2.2 -0.4
v 1.2 2.2 -0.4
v 1.3 2.2 -0.4
v 0.3 2.2 -1.2
v 0.4 2.2 -1.2
v 1.2 2.2 -1.2
v 1.3 2.2 -1.2
v 0.3 2.2 -1.3
v 0.4 2.2 -1.3
v 1.2 2.2 -1.3
v 1.3 2.2 -1.3
v 0.4 2.3 -0.2
v 0.6 2.3 -0.2
v 0.7 2.3 -0.2
v 1 2.3 -0.2
v 1.1 2.3 -0.2
v 1.2 2.3 -0.2
v 0.4 2.3 -0.3
v 0.6 2.3 -0.3
v 0.7 2.3 -0.3
v 1 2.3 -0.3
v 1.1 2.3 -0.3
v 1.2 2.3 -0.3
v 0.2 2.3 -0.4
v 0.3 2.3 -0.4
v 1.3 2.3 -0.4
v 1.4 2.3 -0.4
v 0.2 2.3 -0.6
v 0.3 2.3 -0.6
v 0.2 2.3 -0.7
v 0.3 2.3 -0.7
v 1.3 2.3 -0.8
v 1.4 2.3 -0.8
v 1.3 2.3 -0.9
v 1.4 2.3 -0.9
v 0.2 2.3 -1.2
v 0.3 2.3 -1.2
v 1.3 2.3 -1.2
v 1.4 2.3 -1.2
v 0.4 2.3 -1.3
v 0.5 2.3 -1.3
v 0.6 2.3 -1.3
v 0.9 2.3 -1.3
v 1 2.3 -1.3
v 1.2 2.3 -1.3
v 0.4 2.3 -1.4
v 0.5 2.3 -1.4
v 0.6 2.3 -1.4
v 0.9 2.3 -1.4
v 1 2.3 -1.4
v 1.2 2.3 -1.4
v 0.4 2.6 -0.2
v 0.7 2.6 -0.2
v 0.8 2.6 -0.2
v 0.9 2.6 -0.2
v 1 2.6 -0.2
v 1.2 2.6 -0.2
v 0.4 2.6 -0.3
v 0.7 2.6 -0.3
v 0.8 2.6 -0.3
v 0.9 2.6 -0.3
v 1 2.6 -0.3
v 1.2 2.6 -0.3
v 0.2 2.6 -0.4
v 0.3 2.6 -0.4
v 1.3 2.6 -0.4
v 1.4 2.6 -0.4
v 0.2 2.6 -0.5
v 0.3 2.6 -0.5
v 0.2 2.6 -0.6
v 0.3 2.6 -0.6
v 1.3 2.6 -0.6
v 1.4 2.6 -0.6
v 1.3 2.6 -0.7
v 1.4 2.6 -0.7
v 0.2 2.6 -0.9
v 0.3 2.6 -0.9
v 0.2 2.6 -1
v 0.3 2.6 -1
v 0.2 2.6 -1.2
v 0.3 2.6 -1.2
v 1.3 2.6 -1.2
v 1.4 2.6 -1.2
v 0.4 2.6 -1.3
v 0.6 2.6 -1.3
v 0.7 2.6 -1.3
v 0.8 2.6 -1.3
v 0.9 2.6 -1.3
v 1.2 2.6 -1.3
v 0.4 2.6 -1.4
v 0.6 2.6 -1.4
v 0.7 2.6 -1.4
v 0.8 2.6 -1.4
v 0.9 2.6 -1.4
v 1.2 2.6 -1.4
v 0.3 2.7 -0.3
v 0.4 2.7 -0.3
v 1.2 2.7 -0.3
v 1.3 2.7 -0.3
v 0.3 2.7 -0.4
v 0.4 2.7 -0.4
v 1.2 2.7 -0.4
v 1.3 2.7 -0.4
v 0.3 2.7 -1.2
v 0.4 2.7 -1.2
v 1.2 2.7 -1.2
v 1.3 2.7 -1.2
v 0.3 2.7 -1.3
v 0.4 2.7 -1.3
v 1.2 2.7 -1.3
v 1.3 2.7 -1.3
v 0.4 2.8 -0.3
v 1.2 2.8 -0.3
v 0.3 2.8 -0.4
v 0.4 2.8 -0.4
v 0.6 2.8 -0.4
v 0.7 2.8 -0.4
v 0.8 2.8 -0.4
v 1 2.8 -0.4
v 1.2 2.8 -0.4
v 1.3 2.8 -0.4
v 0.4 2.8 -0.5
v 0.4 2.8 -0.7
v 0.4 2.8 -0.9
v 1.2 2.8 -0.9
v 0.4 2.8 -1
v 0.4 2.8 -1.1
v 1.2 2.8 -1.1
v 0.3 2.8 -1.2
v 0.4 2.8 -1.2
v 0.6 2.8 -1.2
v 0.8 2.8 -1.2
v 0.9 2.8 -1.2
v 1 2.8 -1.2
v 1.1 2.8 -1.2
v 1.2 2.8 -1.2
v 1.3 2.8 -1.2
v 0.4 2.8 -1.3
v 1.2 2.8 -1.3
v 0.4 2.9 -0.4
v 0.6 2.9 -0.4
v 0.7 2.9 -0.4
v 0.8 2.9 -0.4
v 1 2.9 -0.4
v 1.2 2.9 -0.4
v 0.4 2.9 -0.5
v 0.5 2.9 -0.5
v 0.9 2.9 -0.5
v 1 2.9 -0.5
v 1.1 2.9 -0.5
v 1 2.9 -0.6
v 1.1 2.9 -0.6
v 0.4 2.9 -0.7
v 0.5 2.9 -0.7
v 1 2.9 -0.7
v 1.1 2.9 -0.7
v 0.9 2.9 -0.8
v 1 2.9 -0.8
v 1.1 2.9 -0.8
v 0.4 2.9 -0.9
v 0.6 2.9 -0.9
v 0.7 2.9 -0.9
v 0.8 2.9 -0.9
v 1 2.9 -0.9
v 1.2 2.9 -0.9
v 0.4 2.9 -1
v 0.6 2.9 -1
v 0.8 2.9 -1
v 1.1 2.9 -1
v 0.4 2.9 -1.1
v 0.6 2.9 -1.1
v 0.8 2.9 -1.1
v 0.9 2.9 -1.1
v 1 2.9 -1.1
v 1.1 2.9 -1.1
v 1.2 2.9 -1.1
v 0.4 2.9 -1.2
v 0.6 2.9 -1.2
v 0.8 2.9 -1.2
v 0.9 2.9 -1.2
v 1 2.9 -1.2
v 1.1 2.9 -1.2
v 1.2 2.9 -1.2

# faces
f 5/2/1 2/2/1 1/2/1
f 5/3/1 3/3/1 2/3/1
f 6/2/1 4/2/1 3/2/1
f 6/3/1 3/3/1 5/3/1
f 7/2/1 4/2/1 6/2/1
f 8/2/1 4/2/1 7/2/1
f 9/2/1 5/2/1 1/2/1
f 9/2/1 6/2/1 5/2/1
f 9/2/1 7/2/1 6/2/1
f 10/2/1 7/2/1 9/2/1
f 11/2/1 7/2/1 10/2/1
f 12/3/1 8/3/1 7/3/1
f 12/2/1 7/2/1 11/2/1
f 13/2/1 4/2/1 8/2/1
f 13/3/1 8/3/1 12/3/1
f 14/2/1 9/2/1 1/2/1
f 15/3/1 10/3/1 9/3/1
f 15/2/1 9/2/1 14/2/1
f 16/2/1 11/2/1 10/2/1
f 16/3/1 10/3/1 15/3/1
f 17/3/1 12/3/1 11/3/1
f 17/2/1 11/2/1 16/2/1
f 18/2/1 13/2/1 12/2/1
f 18/3/1 12/3/1 17/3/1
f 19/2/1 4/2/1 13/2/1
f 19/2/1 13/2/1 18/2/1
f 23/3/1 21/3/1 20/3/1
f 24/3/1 21/3/1 23/3/1
f 26/3/1 23/3/1 22/3/1
f 26/2/1 24/2/1 23/2/1
f 27/2/1 24/2/1 26/2/1
f 28/2/1 24/2/1 27/2/1
f 29/3/1 25/3/1 24/3/1
f 29/2/1 24/2/1 28/2/1
f 30/3/1 26/3/1 22/3/1
f 35/3/1 25/3/1 29/3/1
f 36/3/1 30/3/1 22/3/1
f 37/2/1 34/2/1 33/2/1
f 37/3/1 30/3/1 36/3/1
f 37/2/1 35/2/1 34/2/1
f 37/2/1 31/2/1 30/2/1
f 37/2/1 32/2/1 31/2/1
f 37/2/1 33/2/1 32/2/1
f 38/3/1 25/3/1 35/3/1
f 38/2/1 35/2/1 37/2/1
f 39/3/1 25/3/1 38/3/1
f 40/3/1 38/3/1 37/3/1
f 41/3/1 38/3/1 40/3/1
f 45/3/1 43/3/1 42/3/1
f 46/3/1 43/3/1 45/3/1
f 48/3/1 45/3/1 44/3/1
f 49/3/1 45/3/1 48/3/1
f 50/3/1 47/3/1 46/3/1
f 51/3/1 47/3/1 50/3/1
f 56/3/1 53/3/1 52/3/1
f 57/3/1 53/3/1 56/3/1
f 58/3/1 55/3/1 54/3/1
f 59/3/1 55/3/1 58/3/1
f 64/3/1 61/3/1 60/3/1
f 65/3/1 61/3/1 64/3/1
f 71/3/1 63/3/1 62/3/1
f 72/3/1 63/3/1 71/3/1
f 73/2/1 66/2/1 65/2/1
f 74/3/1 67/3/1 66/3/1
f 74/2/1 66/2/1 73/2/1
f 75/2/1 68/2/1 67/2/1
f 75/3/1 67/3/1 74/3/1
f 76/3/1 69/3/1 68/3/1
f 76/2/1 68/2/1 75/2/1
f 77/2/1 70/2/1 69/2/1
f 77/3/1 69/3/1 76/3/1
f 78/3/1 71/3/1 70/3/1
f 78/2/1 70/2/1 77/2/1
f 79/3/1 71/3/1 78/3/1
f 80/3/2 81/3/2 83/3/2
f 83/3/2 81/3/2 84/3/2
f 82/3/2 83/3/2 86/3/2
f 86/3/2 83/3/2 87/3/2
f 84/3/2 85/3/2 88/3/2
f 88/3/2 85/3/2 89/3/2
f 90/3/2 91/3/2 94/3/2
f 94/3/2 91/3/2 95/3/2
f 92/3/2 93/3/2 96/3/2
f 96/3/2 93/3/2 97/3/2
f 98/3/2 99/3/2 102/3/2
f 102/3/2 99/3/2 103/3/2
f 100/3/2 101/3/2 106/3/2
f 106/3/2 101/3/2 107/3/2
f 103/2/2 104/2/2 108/2/2
f 104/3/2 105/3/2 109/3/2
f 108/2/2 104/2/2 109/2/2
f 105/2/2 106/2/2 110/2/2
f 109/3/2 105/3/2 110/3/2
f 110/2/2 106/2/2 111/2/2
f 112/3/2 113/3/2 115/3/2
f 115/3/2 113/3/2 116/3/2
f 114/3/2 115/3/2 118/3/2
f 115/2/2 116/2/2 118/2/2
f 118/2/2 116/2/2 119/2/2
f 119/2/2 116/2/2 120/2/2
f 116/3/2 117/3/2 121/3/2
f 120/2/2 116/2/2 121/2/2
f 114/3/2 118/3/2 122/3/2
f 121/3/2 117/3/2 125/3/2
f 114/3/2 122/3/2 126/3/2
f 123/2/2 124/2/2 127/2/2
f 126/3/2 122/3/2 127/3/2
f 124/2/2 125/2/2 127/2/2
f 122/2/2 123/2/2 127/2/2
f 125/3/2 117/3/2 128/3/2
f 127/2/2 125/2/2 128/2/2
f 128/3/2 117/3/2 129/3/2
f 127/3/2 128/3/2 130/3/2
f 130/3/2 128/3/2 131/3/2
f 132/2/2 133/2/2 136/2/2
f 136/2/2 133/2/2 137/2/2
f 133/3/2 134/3/2 138/3/2
f 137/2/2 133/2/2 138/2/2
f 134/2/2 135/2/2 139/2/2
f 138/3/2 134/3/2 139/3/2
f 139/2/2 135/2/2 140/2/2
f 140/2/2 135/2/2 141/2/2
f 136/3/2 137/3/2 142/3/2
f 132/2/2 136/2/2 142/2/2
f 137/2/2 138/2/2 143/2/2
f 142/3/2 137/3/2 143/3/2
f 138/2/2 139/2/2 143/2/2
f 139/2/2 140/2/2 143/2/2
f 143/2/2 140/2/2 144/2/2
f 140/3/2 141/3/2 145/3/2
f 144/2/2 140/2/2 145/2/2
f 141/2/2 135/2/2 146/2/2
f 145/3/2 141/3/2 146/3/2
f 132/2/2 142/2/2 147/2/2
f 142/2/2 143/2/2 147/2/2
f 143/3/2 144/3/2 148/3/2
f 147/2/2 143/2/2 148/2/2
f 144/2/2 145/2/2 149/2/2
f 148/3/2 144/3/2 149/3/2
f 145/2/2 146/2/2 149/2/2
f 146/2/2 135/2/2 150/2/2
f 149/2/2 146/2/2 150/2/2
f 153/3/3 152/3/3 151/3/3
f 154/3/3 152/3/3 153/3/3
f 155/1/3 154/1/3 153/1/3
f 156/3/3 152/3/3 154/3/3
f 156/1/3 154/1/3 155/1/3
f 157/3/3 152/3/3 156/3/3
f 158/3/3 156/3/3 155/3/3
f 159/1/3 157/1/3 156/1/3
f 159/3/3 156/3/3 158/3/3
f 160/1/3 157/1/3 159/1/3
f 161/3/3 158/3/3 155/3/3
f 161/1/3 159/1/3 158/1/3
f 162/3/3 160/3/3 159/3/3
f 162/1/3 159/1/3 161/1/3
f 163/3/3 160/3/3 162/3/3
f 164/3/3 161/3/3 155/3/3
f 164/3/3 162/3/3 161/3/3
f 165/1/3 163/1/3 162/1/3
f 165/3/3 162/3/3 164/3/3
f 166/1/3 163/1/3 165/1/3
f 167/1/3 165/1/3 164/1/3
f 168/3/3 166/3/3 165/3/3
f 168/1/3 165/1/3 167/1/3
f 169/3/3 168/3/3 167/3/3
f 170/3/3 166/3/3 168/3/3
f 170/3/3 168/3/3 169/3/3
f 174/3/3 172/3/3 171/3/3
f 175/3/3 172/3/3 174/3/3
f 176/3/3 172/3/3 175/3/3
f 177/3/3 172/3/3 176/3/3
f 179/3/3 174/3/3 173/3/3
f 179/3/3 175/3/3 174/3/3
f 180/3/3 179/3/3 173/3/3
f 181/3/3 178/3/3 177/3/3
f 181/3/3 177/3/3 176/3/3
f 182/3/3 178/3/3 181/3/3
f 183/3/3 178/3/3 182/3/3
f 184/3/3 180/3/3 173/3/3
f 185/3/3 178/3/3 183/3/3
f 186/3/3 184/3/3 173/3/3
f 187/3/3 186/3/3 173/3/3
f 188/3/3 186/3/3 187/3/3
f 189/3/3 186/3/3 188/3/3
f 190/3/3 178/3/3 185/3/3
f 191/3/3 178/3/3 190/3/3
f 192/3/3 178/3/3 191/3/3
f 193/3/3 189/3/3 188/3/3
f 193/3/3 191/3/3 190/3/3
f 193/3/3 190/3/3 189/3/3
f 194/3/3 191/3/3 193/3/3
f 199/2/3 196/2/3 195/2/3
f 200/2/3 196/2/3 199/2/3
f 204/3/3 198/3/3 197/3/3
f 205/3/3 198/3/3 204/3/3
f 206/3/3 202/3/3 201/3/3
f 207/3/3 202/3/3 206/3/3
f 209/2/3 208/2/3 207/2/3
f 210/2/3 208/2/3 209/2/3
f 211/3/3 210/3/3 209/3/3
f 212/3/3 210/3/3 211/3/3
f 213/2/3 212/2/3 211/2/3
f 214/2/3 212/2/3 213/2/3
f 215/3/3 214/3/3 213/3/3
f 216/3/3 214/3/3 215/3/3
f 217/3/3 204/3/3 203/3/3
f 218/3/3 204/3/3 217/3/3
f 221/2/3 216/2/3 215/2/3
f 222/2/3 216/2/3 221/2/3
f 223/3/3 219/3/3 218/3/3
f 224/3/3 219/3/3 223/3/3
f 227/3/3 221/3/3 220/3/3
f 228/3/3 221/3/3 227/3/3
f 229/2/3 226/2/3 225/2/3
f 230/2/3 226/2/3 229/2/3
f 231/2/4 232/2/4 235/2/4
f 235/2/4 232/2/4 236/2/4
f 233/3/4 234/3/4 240/3/4
f 240/3/4 234/3/4 241/3/4
f 237/3/4 238/3/4 242/3/4
f 242/3/4 238/3/4 243/3/4
f 239/3/4 240/3/4 245/3/4
f 239/3/4 245/3/4 246/3/4
f 243/3/4 244/3/4 247/3/4
f 247/3/4 244/3/4 248/3/4
f 247/2/4 248/2/4 249/2/4
f 249/2/4 248/2/4 250/2/4
f 239/3/4 246/3/4 251/3/4
f 249/3/4 250/3/4 252/3/4
f 252/3/4 250/3/4 253/3/4
f 239/3/4 251/3/4 254/3/4
f 252/2/4 253/2/4 255/2/4
f 255/2/4 253/2/4 256/2/4
f 255/3/4 256/3/4 257/3/4
f 257/3/4 256/3/4 258/3/4
f 239/3/4 254/3/4 259/3/4
f 259/3/4 254/3/4 260/3/4
f 257/2/4 258/2/4 263/2/4
f 263/2/4 258/2/4 264/2/4
f 260/3/4 261/3/4 265/3/4
f 265/3/4 261/3/4 266/3/4
f 262/3/4 263/3/4 269/3/4
f 269/3/4 263/3/4 270/3/4
f 267/2/4 268/2/4 271/2/4
f 271/2/4 268/2/4 272/2/4
f 273/3/4 274/3/4 276/3/4
f 276/3/4 274/3/4 277/3/4
f 277/3/4 274/3/4 278/3/4
f 278/3/4 274/3/4 279/3/4
f 275/3/4 276/3/4 281/3/4
f 276/3/4 277/3/4 281/3/4
f 281/3/4 277/3/4 282/3/4
f 281/1/4 282/1/4 283/1/4
f 283/1/4 282/1/4 284/1/4
f 279/3/4 280/3/4 285/3/4
f 278/3/4 279/3/4 285/3/4
f 285/3/4 280/3/4 286/3/4
f 286/3/4 280/3/4 287/3/4
f 283/3/4 284/3/4 288/3/4
f 288/3/4 284/3/4 289/3/4
f 287/3/4 280/3/4 290/3/4
f 288/1/4 289/1/4 291/1/4
f 291/1/4 289/1/4 292/1/4
f 291/3/4 292/3/4 293/3/4
f 293/3/4 292/3/4 294/3/4
f 294/3/4 292/3/4 295/3/4
f 290/3/4 280/3/4 296/3/4
f 296/3/4 280/3/4 297/3/4
f 297/3/4 280/3/4 298/3/4
f 294/3/4 295/3/4 299/3/4
f 296/3/4 297/3/4 299/3/4
f 295/3/4 296/3/4 299/3/4
f 299/3/4 297/3/4 300/3/4
f 301/3/4 302/3/4 303/3/4
f 303/3/4 302/3/4 304/3/4
f 303/1/4 304/1/4 305/1/4
f 304/3/4 302/3/4 306/3/4
f 305/1/4 304/1/4 306/1/4
f 306/3/4 302/3/4 307/3/4
f 305/3/4 306/3/4 308/3/4
f 306/1/4 307/1/4 309/1/4
f 308/3/4 306/3/4 309/3/4
f 309/1/4 307/1/4 310/1/4
f 305/3/4 308/3/4 311/3/4
f 308/1/4 309/1/4 311/1/4
f 309/3/4 310/3/4 312/3/4
f 311/1/4 309/1/4 312/1/4
f 312/3/4 310/3/4 313/3/4
f 305/3/4 311/3/4 314/3/4
f 311/3/4 312/3/4 314/3/4
f 312/1/4 313/1/4 315/1/4
f 314/3/4 312/3/4 315/3/4
f 315/1/4 313/1/4 316/1/4
f 314/1/4 315/1/4 317/1/4
f 315/3/4 316/3/4 318/3/4
f 317/1/4 315/1/4 318/1/4
f 317/3/4 318/3/4 319/3/4
f 318/3/4 316/3/4 320/3/4
f 319/3/4 318/3/4 320/3/4
f 323/3/5 322/3/5 321/3/5
f 324/3/5 322/3/5 323/3/5
f 328/3/5 326/3/5 325/3/5
f 329/3/5 326/3/5 328/3/5
f 331/3/5 328/3/5 327/3/5
f 332/3/5 328/3/5 331/3/5
f 337/3/5 330/3/5 329/3/5
f 338/3/5 330/3/5 337/3/5
f 339/3/5 333/3/5 332/3/5
f 340/1/5 334/1/5 333/1/5
f 340/3/5 333/3/5 339/3/5
f 341/3/5 335/3/5 334/3/5
f 341/1/5 334/1/5 340/1/5
f 342/1/5 336/1/5 335/1/5
f 342/3/5 335/3/5 341/3/5
f 343/3/5 337/3/5 336/3/5
f 343/1/5 336/1/5 342/1/5
f 344/3/5 337/3/5 343/3/5
f 349/3/5 346/3/5 345/3/5
f 350/3/5 346/3/5 349/3/5
f 351/3/5 348/3/5 347/3/5
f 352/3/5 348/3/5 351/3/5
f 357/3/5 354/3/5 353/3/5
f 358/3/5 354/3/5 357/3/5
f 359/3/5 356/3/5 355/3/5
f 360/3/5 356/3/5 359/3/5
f 367/3/5 362/3/5 361/3/5
f 368/1/5 363/1/5 362/1/5
f 368/3/5 362/3/5 367/3/5
f 369/3/5 364/3/5 363/3/5
f 369/1/5 363/1/5 368/1/5
f 370/1/5 365/1/5 364/1/5
f 370/3/5 364/3/5 369/3/5
f 371/3/5 366/3/5 365/3/5
f 371/1/5 365/1/5 370/1/5
f 372/3/5 366/3/5 371/3/5
f 377/2/5 374/2/5 373/2/5
f 378/2/5 374/2/5 377/2/5
f 379/3/5 378/3/5 377/3/5
f 380/3/5 378/3/5 379/3/5
f 381/2/5 376/2/5 375/2/5
f 382/2/5 376/2/5 381/2/5
f 383/3/5 382/3/5 381/3/5
f 384/3/5 382/3/5 383/3/5
f 385/2/5 380/2/5 379/2/5
f 386/2/5 380/2/5 385/2/5
f 387/2/5 384/2/5 383/2/5
f 388/2/5 384/2/5 387/2/5
f 395/3/5 390/3/5 389/3/5
f 396/1/5 391/1/5 390/1/5
f 396/3/5 390/3/5 395/3/5
f 397/3/5 392/3/5 391/3/5
f 397/1/5 391/1/5 396/1/5
f 398/1/5 393/1/5 392/1/5
f 398/3/5 392/3/5 397/3/5
f 399/3/5 394/3/5 393/3/5
f 399/1/5 393/1/5 398/1/5
f 400/3/5 394/3/5 399/3/5
f 401/3/6 402/3/6 407/3/6
f 402/1/6 403/1/6 408/1/6
f 407/3/6 402/3/6 408/3/6
f 403/3/6 404/3/6 409/3/6
f 408/1/6 403/1/6 409/1/6
f 404/1/6 405/1/6 410/1/6
f 409/3/6 404/3/6 410/3/6
f 405/3/6 406/3/6 411/3/6
f 410/1/6 405/1/6 411/1/6
f 411/3/6 406/3/6 412/3/6
f 413/2/6 414/2/6 417/2/6
f 417/2/6 414/2/6 418/2/6
f 417/3/6 418/3/6 419/3/6
f 419/3/6 418/3/6 420/3/6
f 415/2/6 416/2/6 421/2/6
f 421/2/6 416/2/6 422/2/6
f 421/3/6 422/3/6 423/3/6
f 423/3/6 422/3/6 424/3/6
f 419/2/6 420/2/6 425/2/6
f 425/2/6 420/2/6 426/2/6
f 425/3/6 426/3/6 427/3/6
f 427/3/6 426/3/6 428/3/6
f 427/2/6 428/2/6 429/2/6
f 429/2/6 428/2/6 430/2/6
f 423/2/6 424/2/6 431/2/6
f 431/2/6 424/2/6 432/2/6
f 433/3/6 434/3/6 439/3/6
f 434/1/6 435/1/6 440/1/6
f 439/3/6 434/3/6 440/3/6
f 435/3/6 436/3/6 441/3/6
f 440/1/6 435/1/6 441/1/6
f 436/1/6 437/1/6 442/1/6
f 441/3/6 436/3/6 442/3/6
f 437/3/6 438/3/6 443/3/6
f 442/1/6 437/1/6 443/1/6
f 443/3/6 438/3/6 444/3/6
f 445/3/6 446/3/6 449/3/6
f 449/3/6 446/3/6 450/3/6
f 447/3/6 448/3/6 451/3/6
f 451/3/6 448/3/6 452/3/6
f 453/3/6 454/3/6 457/3/6
f 457/3/6 454/3/6 458/3/6
f 455/3/6 456/3/6 459/3/6
f 459/3/6 456/3/6 460/3/6
f 461/3/6 462/3/6 464/3/6
f 464/3/6 462/3/6 465/3/6
f 465/3/6 462/3/6 466/3/6
f 466/3/6 462/3/6 467/3/6
f 467/3/6 462/3/6 468/3/6
f 468/3/6 462/3/6 469/3/6
f 463/3/6 464/3/6 471/3/6
f 463/3/6 471/3/6 472/3/6
f 463/3/6 472/3/6 473/3/6
f 469/3/6 470/3/6 474/3/6
f 463/3/6 473/3/6 475/3/6
f 463/3/6 475/3/6 476/3/6
f 474/3/6 470/3/6 477/3/6
f 463/3/6 476/3/6 478/3/6
f 478/3/6 476/3/6 479/3/6
f 477/3/6 470/3/6 485/3/6
f 485/3/6 470/3/6 486/3/6
f 483/3/6 484/3/6 487/3/6
f 484/3/6 485/3/6 487/3/6
f 479/3/6 480/3/6 487/3/6
f 482/3/6 483/3/6 487/3/6
f 481/3/6 482/3/6 487/3/6
f 480/3/6 481/3/6 487/3/6
f 487/3/6 485/3/6 488/3/6
f 489/2/6 490/2/6 495/2/6
f 495/2/6 490/2/6 496/2/6
f 492/3/6 493/3/6 497/3/6
f 493/2/6 494/2/6 498/2/6
f 497/3/6 493/3/6 498/3/6
f 498/2/6 494/2/6 499/2/6
f 497/2/6 498/2/6 500/2/6
f 498/3/6 499/3/6 500/3/6
f 499/2/6 494/2/6 501/2/6
f 500/3/6 499/3/6 501/3/6
f 495/3/6 496/3/6 502/3/6
f 496/2/6 490/2/6 503/2/6
f 502/3/6 496/3/6 503/3/6
f 497/2/6 500/2/6 504/2/6
f 500/2/6 501/2/6 504/2/6
f 501/2/6 494/2/6 505/2/6
f 504/2/6 501/2/6 505/2/6
f 492/3/6 497/3/6 506/3/6
f 497/2/6 504/2/6 506/2/6
f 504/3/6 505/3/6 507/3/6
f 506/2/6 504/2/6 507/2/6
f 505/2/6 494/2/6 508/2/6
f 507/3/6 505/3/6 508/3/6
f 502/2/6 503/2/6 509/2/6
f 490/3/6 491/3/6 510/3/6
f 509/2/6 503/2/6 510/2/6
f 503/2/6 490/2/6 510/2/6
f 491/2/6 492/2/6 511/2/6
f 510/3/6 491/3/6 511/3/6
f 506/3/6 507/3/6 512/3/6
f 511/2/6 492/2/6 512/2/6
f 492/3/6 506/3/6 512/3/6
f 507/2/6 508/2/6 513/2/6
f 512/3/6 507/3/6 513/3/6
f 508/2/6 494/2/6 514/2/6
f 513/2/6 508/2/6 514/2/6
f 510/3/6 511/3/6 515/3/6
f 509/3/6 510/3/6 515/3/6
f 513/3/6 514/3/6 515/3/6
f 511/3/6 512/3/6 515/3/6
f 512/3/6 513/3/6 515/3/6
f 515/3/6 514/3/6 516/3/6
f 516/3/6 514/3/6 517/3/6
f 517/3/6 514/3/6 518/3/6
f 515/2/6 516/2/6 519/2/6
f 516/3/6 517/3/6 520/3/6
f 519/2/6 516/2/6 520/2/6
f 517/2/6 518/2/6 521/2/6
f 520/3/6 517/3/6 521/3/6
f 521/2/6 518/2/6 522/2/6
f 522/2/6 518/2/6 523/2/6
f 518/3/6 514/3/6 524/3/6
f 523/2/6 518/2/6 524/2/6
f 524/3/6 514/3/6 525/3/6
f 519/3/6 520/3/6 526/3/6
f 520/2/6 521/2/6 527/2/6
f 526/3/6 520/3/6 527/3/6
f 521/3/6 522/3/6 528/3/6
f 527/2/6 521/2/6 528/2/6
f 522/2/6 523/2/6 529/2/6
f 528/3/6 522/3/6 529/3/6
f 523/3/6 524/3/6 530/3/6
f 529/2/6 523/2/6 530/2/6
f 524/2/6 525/2/6 531/2/6
f 530/3/6 524/3/6 531/3/6
f 531/2/6 525/2/6 532/2/6
